<svg width="96" height="97" viewBox="0 0 96 97" fill="none" xmlns="http://www.w3.org/2000/svg">
<rect x="8.89227" y="9.30007" width="78.0067" height="78.0067" rx="39.0034" fill="white"/>
<rect x="8.89227" y="9.30007" width="78.0067" height="78.0067" rx="39.0034" stroke="black" stroke-width="1.7"/>
<mask id="path-2-outside-1_2710_3771" maskUnits="userSpaceOnUse" x="24.7363" y="30.7316" width="46" height="34" fill="black">
<rect fill="white" x="24.7363" y="30.7316" width="46" height="34"/>
<path fill-rule="evenodd" clip-rule="evenodd" d="M41.8732 46.8816L70.3768 46.8816L70.3768 48.6865L41.8732 48.6865L30.9785 48.6865L28.7845 48.6865L42.898 62.9522L41.6354 64.2285L25.9977 48.4222C25.6582 48.079 25.648 47.5257 25.9748 47.17L26.6291 47.7841C25.9748 47.17 25.9749 47.17 25.9749 47.1699L25.9752 47.1696L25.9762 47.1686L25.9798 47.1646L25.9939 47.1492L26.0493 47.0893C26.0981 47.0364 26.1706 46.9581 26.2658 46.8556C26.4564 46.6505 26.7382 46.3484 27.1041 45.9594C27.8358 45.1814 28.9041 44.0557 30.2523 42.6623C32.9484 39.8759 36.7649 36.0182 41.2482 31.7316L42.4753 33.0427C38.0124 37.3099 34.2126 41.1507 31.5289 43.9243C30.363 45.1293 29.4079 46.1326 28.701 46.8816L30.9785 46.8816L41.8732 46.8816Z"/>
</mask>
<path fill-rule="evenodd" clip-rule="evenodd" d="M41.8732 46.8816L70.3768 46.8816L70.3768 48.6865L41.8732 48.6865L30.9785 48.6865L28.7845 48.6865L42.898 62.9522L41.6354 64.2285L25.9977 48.4222C25.6582 48.079 25.648 47.5257 25.9748 47.17L26.6291 47.7841C25.9748 47.17 25.9749 47.17 25.9749 47.1699L25.9752 47.1696L25.9762 47.1686L25.9798 47.1646L25.9939 47.1492L26.0493 47.0893C26.0981 47.0364 26.1706 46.9581 26.2658 46.8556C26.4564 46.6505 26.7382 46.3484 27.1041 45.9594C27.8358 45.1814 28.9041 44.0557 30.2523 42.6623C32.9484 39.8759 36.7649 36.0182 41.2482 31.7316L42.4753 33.0427C38.0124 37.3099 34.2126 41.1507 31.5289 43.9243C30.363 45.1293 29.4079 46.1326 28.701 46.8816L30.9785 46.8816L41.8732 46.8816Z" fill="black"/>
<path d="M70.3768 46.8816L70.5768 46.8816L70.3768 46.6816L70.3768 46.8816ZM41.8732 46.8816L41.8732 46.6816L41.8732 46.6816L41.8732 46.8816ZM70.3768 48.6865L70.3768 48.8865L70.5768 48.6865L70.3768 48.6865ZM41.8732 48.6865L41.8732 48.4865L41.8732 48.4865L41.8732 48.6865ZM30.9785 48.6865L30.9785 48.4865L30.9785 48.4865L30.9785 48.6865ZM28.7845 48.6865L28.7845 48.4865L28.6423 48.8272L28.7845 48.6865ZM42.898 62.9522L43.0402 63.0929V62.8116L42.898 62.9522ZM41.6354 64.2285L41.4932 64.3691H41.7776L41.6354 64.2285ZM25.9977 48.4222L25.8556 48.5629L25.9977 48.4222ZM25.9748 47.17L26.1117 47.0242L25.8275 47.0347L25.9748 47.17ZM25.9749 47.1699L25.8277 47.0346L25.8276 47.0346L25.9749 47.1699ZM25.9752 47.1696L25.828 47.0343L25.8279 47.0343L25.9752 47.1696ZM25.9762 47.1686L25.829 47.0332L25.8289 47.0332L25.9762 47.1686ZM25.9798 47.1646L25.8327 47.0291L25.8326 47.0292L25.9798 47.1646ZM25.9939 47.1492L25.847 47.0136L25.8468 47.0138L25.9939 47.1492ZM26.0493 47.0893L25.9024 46.9536L25.9023 46.9537L26.0493 47.0893ZM26.2658 46.8556L26.1193 46.7194L26.1193 46.7194L26.2658 46.8556ZM27.1041 45.9594L27.2497 46.0964L27.2497 46.0964L27.1041 45.9594ZM30.2523 42.6623L30.1086 42.5233L30.2523 42.6623ZM41.2482 31.7316L41.3942 31.5949L41.11 31.587L41.2482 31.7316ZM42.4753 33.0427L42.6135 33.1873L42.6213 32.9061L42.4753 33.0427ZM31.5289 43.9243L31.3851 43.7852L31.5289 43.9243ZM28.701 46.8816L28.5555 46.7444L28.701 47.0816L28.701 46.8816ZM30.9785 46.8816L30.9785 47.0816L30.9785 47.0816L30.9785 46.8816ZM70.3768 46.6816L41.8732 46.6816L41.8732 47.0816L70.3768 47.0816L70.3768 46.6816ZM70.5768 48.6865L70.5768 46.8816L70.1768 46.8816L70.1768 48.6865L70.5768 48.6865ZM41.8732 48.8865L70.3768 48.8865L70.3768 48.4865L41.8732 48.4865L41.8732 48.8865ZM30.9785 48.8865L41.8732 48.8865L41.8732 48.4865L30.9785 48.4865L30.9785 48.8865ZM28.7845 48.8865L30.9785 48.8865L30.9785 48.4865L28.7845 48.4865L28.7845 48.8865ZM43.0402 62.8116L28.9267 48.5459L28.6423 48.8272L42.7558 63.0929L43.0402 62.8116ZM41.7776 64.3691L43.0402 63.0929L42.7558 62.8116L41.4932 64.0878L41.7776 64.3691ZM25.8556 48.5629L41.4932 64.3691L41.7776 64.0878L26.1399 48.2816L25.8556 48.5629ZM25.8275 47.0347C25.4286 47.469 25.4409 48.1437 25.8556 48.5629L26.1399 48.2816C25.8755 48.0143 25.8675 47.5825 26.1221 47.3053L25.8275 47.0347ZM26.7659 47.6383L26.1117 47.0242L25.8379 47.3159L26.4922 47.9299L26.7659 47.6383ZM25.8276 47.0346C25.8276 47.0346 25.8255 47.037 25.8233 47.0394C25.8213 47.0419 25.8154 47.0493 25.8116 47.0545C25.8015 47.0687 25.7897 47.0895 25.7822 47.1166C25.7666 47.173 25.7797 47.2194 25.7884 47.242C25.7967 47.2636 25.8069 47.2786 25.8107 47.284C25.8154 47.2908 25.8196 47.2959 25.8217 47.2985C25.826 47.3036 25.8296 47.3073 25.8306 47.3084C25.8322 47.31 25.8334 47.3112 25.834 47.3118C25.836 47.3138 25.8379 47.3156 25.8383 47.316C25.84 47.3176 25.843 47.3204 25.848 47.3252C25.8583 47.3349 25.8789 47.3542 25.9197 47.3925C26.0015 47.4693 26.1651 47.6229 26.4922 47.9299L26.7659 47.6383C26.4388 47.3312 26.2753 47.1777 26.1935 47.101C26.1526 47.0626 26.1323 47.0434 26.1222 47.0339C26.117 47.0291 26.1149 47.027 26.1141 47.0263C26.1132 47.0254 26.1145 47.0266 26.1162 47.0283C26.1167 47.0288 26.1179 47.03 26.1193 47.0315C26.1203 47.0325 26.1239 47.0363 26.1282 47.0414C26.1303 47.0439 26.1345 47.049 26.1392 47.0558C26.143 47.0612 26.1532 47.0763 26.1615 47.0978C26.1702 47.1204 26.1833 47.1668 26.1677 47.2232C26.1531 47.276 26.1189 47.3088 26.1223 47.3051L25.8276 47.0346ZM25.8279 47.0343L25.8277 47.0346L26.1222 47.3052L26.1225 47.3049L25.8279 47.0343ZM25.8289 47.0332L25.828 47.0343L26.1225 47.3049L26.1234 47.3039L25.8289 47.0332ZM25.8326 47.0292L25.829 47.0332L26.1234 47.3039L26.127 47.3L25.8326 47.0292ZM25.8468 47.0138L25.8327 47.0291L26.127 47.3L26.1411 47.2847L25.8468 47.0138ZM25.9023 46.9537L25.847 47.0136L26.1409 47.2849L26.1963 47.2249L25.9023 46.9537ZM26.1193 46.7194C26.0239 46.8221 25.9513 46.9006 25.9024 46.9536L26.1962 47.225C26.2449 47.1723 26.3172 47.0941 26.4124 46.9917L26.1193 46.7194ZM26.9584 45.8224C26.5922 46.2117 26.3102 46.514 26.1193 46.7194L26.4124 46.9917C26.6027 46.7869 26.8841 46.4851 27.2497 46.0964L26.9584 45.8224ZM30.1086 42.5233C28.7597 43.9173 27.6907 45.0438 26.9584 45.8224L27.2497 46.0964C27.9809 45.3191 29.0486 44.194 30.396 42.8014L30.1086 42.5233ZM41.11 31.587C36.6245 35.8758 32.806 39.7354 30.1086 42.5233L30.396 42.8014C33.0907 40.0164 36.9054 36.1606 41.3864 31.8761L41.11 31.587ZM42.6213 32.9061L41.3942 31.5949L41.1022 31.8682L42.3293 33.1794L42.6213 32.9061ZM31.6726 44.0634C34.3549 41.2912 38.1528 37.4523 42.6135 33.1873L42.3371 32.8982C37.8719 37.1676 34.0702 41.0102 31.3851 43.7852L31.6726 44.0634ZM28.8464 47.0189C29.5529 46.2704 30.5073 45.2677 31.6726 44.0634L31.3851 43.7852C30.2186 44.9908 29.263 45.9948 28.5555 46.7444L28.8464 47.0189ZM30.9785 46.6816L28.701 46.6816L28.701 47.0816L30.9785 47.0816L30.9785 46.6816ZM41.8732 46.6816L30.9785 46.6816L30.9785 47.0816L41.8732 47.0816L41.8732 46.6816Z" fill="black" mask="url(#path-2-outside-1_2710_3771)"/>
<circle cx="48.0865" cy="48.4943" r="43.8112" stroke="#C9FF4C" stroke-width="7.53391"/>
</svg>
