<svg width="612" height="156" viewBox="0 0 612 156" fill="none" xmlns="http://www.w3.org/2000/svg">
<path fill-rule="evenodd" clip-rule="evenodd" d="M92.1908 48.1576L92.657 48.8069L94.8977 51.9278L95.296 52.4826L95.0443 53.1175L93.4052 57.2517L93.3391 57.4183L93.2289 57.5596L79.1119 75.6646L68.4965 92.1608L69.1639 93.0404L72.0479 93.1244L84.7578 83.9152L94.3713 75.9639L94.3979 75.9418L94.4257 75.9213L103.141 69.4898L103.567 69.1759L104.088 69.2625L108.241 69.9523L108.677 70.0247L108.971 70.3553L110.938 72.5705L111.356 73.0412L111.227 73.6572L110.517 77.0433L110.439 77.4162L110.166 77.6821L99.3469 88.223L99.3083 88.2607L99.2666 88.2948L78.7462 105.099L76.4462 107.719L76.2588 108.74L77.8448 109.649L89.3541 108.424L101.819 104.213L101.833 104.208L101.848 104.203L109.962 101.68L110.263 101.586L110.573 101.646L114.535 102.42L115.126 102.535L115.404 103.069L116.661 105.481L116.974 106.082L116.641 106.672L114.51 110.452L114.305 110.816L113.922 110.984L98.2396 117.842L98.1997 117.86L98.1587 117.874L81.3653 123.863L74.7793 128.269L64.1673 142.03L64.1123 142.101L64.0476 142.164L53.775 152.124L53.5128 152.378L53.1549 152.451L40.9419 154.945L40.4214 155.051L39.9837 154.75L27.9411 146.469L13.822 137.046L13.5265 136.849L13.3789 136.525L8.13222 125.037L7.99732 124.741L8.02326 124.418L9.22296 109.445L9.97793 94.1444L8.77321 88.5818L0.249083 74.6549L0.0715462 74.3648L0.0654364 74.0248L0.0105979 70.9732L0 70.3834L0.448482 70.0003L2.36095 68.3665L2.86199 67.9385L3.49824 68.11L9.78251 69.8042L10.0366 69.8728L10.2416 70.0379L16.4714 75.0594L16.6706 75.2199L16.7907 75.4459L21.4088 84.1339L21.4787 84.2655L21.5158 84.4099L24.1513 94.682L26.7449 96.9212L29.239 96.1456L35.7387 85.513L35.7413 85.5086L39.3452 79.559L46.7918 60.7771L46.8026 60.7499L46.8146 60.7233L53.2891 46.3868L53.3822 46.1805L53.5418 46.02L57.7492 41.7878L58.2218 41.3125L58.8792 41.4431L63.7153 42.4037L64.512 42.5619L64.6911 43.3542L65.8389 48.4338L65.9303 48.8382L65.762 49.217L57.0119 68.9069L53.5307 83.4186L54.4598 84.8535L56.5146 84.5075L65.9404 70.7809L65.9731 70.7333L66.01 70.6889L77.4846 56.8996L77.5146 56.8635L77.5473 56.8297L84.2409 49.9155L84.5155 49.6319L84.9032 49.5574L91.4058 48.3084L92.1908 48.1576ZM85.7625 51.9381L79.3762 58.5349L67.9686 72.2437L58.2754 86.3598L57.9753 86.7968L57.4525 86.8848L54.0645 87.4552L53.2543 87.5916L52.8078 86.9019L51.1409 84.3274L50.8497 83.8776L50.9747 83.3565L54.6076 68.2123L54.6343 68.1009L54.6808 67.9963L63.309 48.5806L62.4316 44.6975L59.0496 44.0258L55.4744 47.622L49.105 61.7256L41.6307 80.5778L41.5921 80.6751L41.5378 80.7647L37.877 86.8082L37.8743 86.8126L31.1264 97.8513L30.8808 98.2531L30.4311 98.393L26.8246 99.5146L26.1619 99.7207L25.6365 99.2671L22.221 96.3183L21.9245 96.0623L21.8271 95.6828L19.1313 85.1756L14.7033 76.8452L8.87761 72.1495L3.48374 70.6954L2.52079 71.518L2.55892 73.6398L11.0162 87.4575L11.1268 87.6383L11.1717 87.8455L12.4562 93.7766L12.4912 93.9379L12.483 94.1028L11.719 109.587L11.718 109.606L11.7165 109.625L10.5412 124.294L15.5053 135.164L29.3361 144.394L29.3433 144.399L29.3504 144.404L40.9624 152.389L52.297 150.075L62.2426 140.431L72.9245 126.58L73.0493 126.419L73.2193 126.305L80.1042 121.699L80.2332 121.613L80.3794 121.561L97.2778 115.534L112.538 108.86L114.131 106.035L113.465 104.758L110.404 104.16L102.605 106.586L90.0237 110.836L89.893 110.881L89.7559 110.895L77.7068 112.178L77.3041 112.221L76.9527 112.019L74.2477 110.468L73.4801 110.028L73.64 109.158L74.0497 106.928L74.1121 106.589L74.3396 106.33L76.935 103.372L77.0029 103.295L77.0826 103.23L97.6409 86.3948L108.148 76.1573L108.651 73.76L107.395 72.346L104.2 71.8153L95.938 77.9124L86.3203 85.8671L86.2895 85.8927L86.2571 85.9161L73.1702 95.3985L72.8257 95.6481L72.4004 95.6358L68.4933 95.5219L67.8954 95.5045L67.5339 95.028L65.9764 92.9753L65.4478 92.2786L65.921 91.5433L77.0401 74.2642L77.0708 74.2167L77.1055 74.172L91.1472 56.1637L92.4685 52.831L91.0924 50.9143L85.7625 51.9381Z" fill="black"/>
<path d="M120 128.911C223.993 118.898 353.506 40.5661 322.889 15.9814C278.674 -19.5217 244.433 76.9191 328.165 127.924C379.097 158.95 474.228 128.432 492 112.786" stroke="black" stroke-width="2" stroke-dasharray="20 20"/>
<path fill-rule="evenodd" clip-rule="evenodd" d="M577.162 7.15757L577.628 7.80691L579.868 10.9278L580.267 11.4826L580.015 12.1175L578.376 16.2517L578.31 16.4183L578.2 16.5596L564.083 34.6646L553.467 51.1608L554.135 52.0404L557.019 52.1244L569.729 42.9152L579.342 34.9639L579.369 34.9418L579.396 34.9213L588.112 28.4898L588.537 28.1759L589.059 28.2625L593.212 28.9523L593.648 29.0247L593.942 29.3553L595.909 31.5705L596.327 32.0412L596.198 32.6572L595.488 36.0433L595.409 36.4162L595.137 36.6821L584.318 47.223L584.279 47.2607L584.237 47.2948L563.717 64.0985L561.417 66.7195L561.229 67.7395L562.816 68.6489L574.325 67.4237L586.79 63.2125L586.804 63.2077L586.818 63.2032L594.933 60.6796L595.234 60.5859L595.544 60.6464L599.506 61.4198L600.096 61.5351L600.375 62.0689L601.632 64.4809L601.945 65.082L601.612 65.6725L599.481 69.4522L599.276 69.8161L598.893 69.9835L583.21 76.8421L583.17 76.8595L583.129 76.8742L566.336 82.8633L559.75 87.2691L549.138 101.03L549.083 101.101L549.018 101.164L538.746 111.124L538.483 111.378L538.126 111.451L525.913 113.945L525.392 114.051L524.954 113.75L512.912 105.469L498.793 96.0459L498.497 95.8487L498.35 95.5255L493.103 84.0368L492.968 83.7414L492.994 83.4177L494.194 68.4447L494.949 53.1444L493.744 47.5818L485.22 33.6549L485.042 33.3648L485.036 33.0248L484.981 29.9732L484.971 29.3834L485.419 29.0003L487.332 27.3665L487.833 26.9385L488.469 27.11L494.753 28.8042L495.007 28.8728L495.212 29.0379L501.442 34.0594L501.641 34.2199L501.761 34.4459L506.379 43.1339L506.449 43.2655L506.486 43.4099L509.122 53.682L511.716 55.9212L514.21 55.1456L520.709 44.513L520.712 44.5086L524.316 38.559L531.762 19.7771L531.773 19.7499L531.785 19.7233L538.26 5.38681L538.353 5.18052L538.513 5.02L542.72 0.787848L543.192 0.3125L543.85 0.443086L548.686 1.40368L549.483 1.56193L549.662 2.35421L550.81 7.43385L550.901 7.83818L550.733 8.21699L541.983 27.9069L538.501 42.4186L539.43 43.8535L541.485 43.5075L550.911 29.7809L550.944 29.7333L550.981 29.6889L562.455 15.8996L562.485 15.8635L562.518 15.8297L569.212 8.91555L569.486 8.6319L569.874 8.55743L576.377 7.30836L577.162 7.15757ZM570.733 10.9381L564.347 17.5349L552.939 31.2437L543.246 45.3598L542.946 45.7968L542.423 45.8848L539.035 46.4552L538.225 46.5916L537.778 45.9019L536.112 43.3274L535.82 42.8776L535.945 42.3565L539.578 27.2123L539.605 27.1009L539.652 26.9963L548.28 7.58055L547.402 3.69753L544.02 3.02577L540.445 6.62205L534.076 20.7256L526.601 39.5778L526.563 39.6751L526.509 39.7647L522.848 45.8082L522.845 45.8126L516.097 56.8513L515.851 57.2531L515.402 57.393L511.795 58.5146L511.133 58.7207L510.607 58.2671L507.192 55.3183L506.895 55.0623L506.798 54.6828L504.102 44.1756L499.674 35.8452L493.848 31.1495L488.454 29.6954L487.491 30.518L487.53 32.6398L495.987 46.4575L496.098 46.6383L496.142 46.8455L497.427 52.7766L497.462 52.9379L497.454 53.1028L496.69 68.5871L496.689 68.6062L496.687 68.6253L495.512 83.2936L500.476 94.1637L514.307 103.394L514.314 103.399L514.321 103.404L525.933 111.389L537.268 109.075L547.213 99.4315L557.895 85.5805L558.02 85.4186L558.19 85.3049L565.075 80.6991L565.204 80.6128L565.35 80.5607L582.249 74.5341L597.508 67.8604L599.101 65.0352L598.436 63.7581L595.374 63.1605L587.575 65.5859L574.994 69.8364L574.864 69.8805L574.727 69.8951L562.677 71.1777L562.275 71.2206L561.923 71.0191L559.218 69.4683L558.451 69.0282L558.611 68.1579L559.02 65.9284L559.083 65.5891L559.31 65.3298L561.906 62.3721L561.974 62.2947L562.053 62.2295L582.612 45.3948L593.119 35.1573L593.622 32.76L592.366 31.346L589.171 30.8153L580.909 36.9124L571.291 44.8671L571.26 44.8927L571.228 44.9161L558.141 54.3985L557.796 54.6481L557.371 54.6358L553.464 54.5219L552.866 54.5045L552.505 54.028L550.947 51.9753L550.419 51.2786L550.892 50.5433L562.011 33.2642L562.041 33.2167L562.076 33.172L576.118 15.1637L577.439 11.831L576.063 9.91427L570.733 10.9381Z" fill="black"/>
</svg>
