<svg width="489" height="170" viewBox="0 0 489 170" fill="none" xmlns="http://www.w3.org/2000/svg">
<path d="M15.8152 118.412L11.8242 120.31L9.43337 125.912L16.4279 149.175L34.218 164.828L44.2362 167.738L71.3599 158.778L74.6233 144.064L68.4412 112.43L63.3815 106.589L57.1111 106.766L53.8135 104.371L48.9503 103.462L44.2362 106.402L39.7761 103.102L32.0807 103.102L27.9273 107.276L13.4498 64.4372L8.94038 59.8091L3.60035 61.4704L2.94796 68.4126L8.2287 89.3575L14.2099 113.253L22.1664 138.823L24.1837 142.739" stroke="black" stroke-width="2.5"/>
<path d="M425.815 62.4124L421.824 64.3098L419.433 69.9116L426.428 93.175L444.218 108.828L454.236 111.738L481.36 102.778L484.623 88.0636L478.441 56.4302L473.382 50.5885L467.111 50.7656L463.813 48.3714L458.95 47.4616L454.236 50.402L449.776 47.1019L442.081 47.1019L437.927 51.2764L423.45 8.43717L418.94 3.80911L413.6 5.47045L412.948 12.4126L418.229 33.3575L424.21 57.2534L432.166 82.8233L434.184 86.7394" stroke="black" stroke-width="2.5"/>
<path d="M257.889 22.9817L258.624 22.3035L257.889 22.9817ZM252.165 134.925L251.645 135.779L252.165 134.925ZM407.498 95.0645C407.533 94.5133 407.115 94.0381 406.563 94.003L397.582 93.4316C397.03 93.3966 396.555 93.815 396.52 94.3661C396.485 94.9173 396.904 95.3925 397.455 95.4276L405.439 95.9355L404.931 103.919C404.896 104.471 405.314 104.946 405.865 104.981C406.416 105.016 406.892 104.597 406.927 104.046L407.498 95.0645ZM100.21 138.42L101.19 138.618L101.587 136.658L100.607 136.46L100.21 138.42ZM120.752 138.701L119.752 138.673L119.696 140.672L120.696 140.701L120.752 138.701ZM141.278 139.798L142.272 139.687L142.05 137.699L141.056 137.811L141.278 139.798ZM161.091 134.327L160.118 134.555L160.574 136.502L161.547 136.274L161.091 134.327ZM181.295 130.515L182.239 130.185L181.579 128.297L180.635 128.627L181.295 130.515ZM199.487 120.938L198.582 121.363L199.43 123.174L200.336 122.749L199.487 120.938ZM218.479 113.059L219.334 112.541L218.298 110.831L217.443 111.349L218.479 113.059ZM234.196 99.7976L233.41 100.416L234.647 101.988L235.433 101.369L234.196 99.7976ZM250.621 87.4398L251.299 86.7043L249.828 85.3492L249.15 86.0846L250.621 87.4398ZM261.09 69.8185L260.609 70.6953L262.363 71.6567L262.844 70.7798L261.09 69.8185ZM269.161 51.0366L269.241 50.0398L267.247 49.8809L267.168 50.8777L269.161 51.0366ZM263.056 31.7538L263.538 32.6296L265.29 31.6644L264.807 30.7885L263.056 31.7538ZM249.805 15.3727L248.916 14.9139L247.999 16.6909L248.887 17.1497L249.805 15.3727ZM229.111 17.8813L229.973 17.3754L228.961 15.6502L228.099 16.1562L229.111 17.8813ZM213.457 32.6237L212.997 33.5115L214.772 34.4322L215.233 33.5445L213.457 32.6237ZM208.98 53.9229L209.112 52.9316L207.129 52.6684L206.998 53.6597L208.98 53.9229ZM207.432 75.6292L207.6 76.615L209.572 76.2794L209.404 75.2936L207.432 75.6292ZM216.003 95.6688L215.564 94.7706L213.767 95.6497L214.207 96.5479L216.003 95.6688ZM226.385 114.813L227.04 115.568L228.551 114.257L227.895 113.502L226.385 114.813ZM243.702 128.031L242.899 127.434L241.707 129.04L242.51 129.636L243.702 128.031ZM261.208 140.492L262.14 140.854L262.864 138.989L261.932 138.627L261.208 140.492ZM282.074 142.994L281.077 142.922L280.933 144.917L281.93 144.989L282.074 142.994ZM303.076 144.171L304.066 144.035L303.795 142.053L302.804 142.189L303.076 144.171ZM323.169 137.799L322.208 138.076L322.761 139.998L323.722 139.721L323.169 137.799ZM343.642 132.79L344.569 132.415L343.818 130.561L342.891 130.937L343.642 132.79ZM361.912 122.266L361.019 122.717L361.921 124.502L362.814 124.051L361.912 122.266ZM381.254 113.854L382.111 113.338L381.08 111.624L380.223 112.14L381.254 113.854ZM397.697 100.644L396.888 101.232L398.063 102.85L398.872 102.263L397.697 100.644ZM90.205 135.88C93.4767 136.89 96.8161 137.734 100.21 138.42L100.607 136.46C97.2748 135.786 94.0002 134.959 90.795 133.969L90.205 135.88ZM120.696 140.701C127.477 140.892 134.368 140.572 141.278 139.798L141.056 137.811C134.23 138.575 127.433 138.89 120.752 138.701L120.696 140.701ZM161.547 136.274C168.217 134.712 174.826 132.775 181.295 130.515L180.635 128.627C174.231 130.865 167.689 132.782 161.091 134.327L161.547 136.274ZM200.336 122.749C206.649 119.791 212.727 116.542 218.479 113.059L217.443 111.349C211.753 114.794 205.738 118.01 199.487 120.938L200.336 122.749ZM235.433 101.369C241.077 96.9264 246.184 92.2558 250.621 87.4398L249.15 86.0846C244.794 90.8133 239.767 95.4126 234.196 99.7976L235.433 101.369ZM262.844 70.7798C266.424 64.2489 268.638 57.6051 269.161 51.0366L267.168 50.8777C266.671 57.1075 264.565 63.4791 261.09 69.8185L262.844 70.7798ZM264.807 30.7885C263.202 27.8752 261.149 25.0406 258.624 22.3035L257.154 23.6598C259.578 26.2875 261.534 28.9922 263.056 31.7538L264.807 30.7885ZM258.624 22.3035C255.777 19.218 252.817 16.9282 249.805 15.3727L248.887 17.1497C251.662 18.5827 254.44 20.7188 257.154 23.6598L258.624 22.3035ZM228.099 16.1562C222.323 19.5441 217.244 25.3229 213.457 32.6237L215.233 33.5445C218.892 26.4895 223.737 21.0335 229.111 17.8813L228.099 16.1562ZM206.998 53.6597C206.078 60.5905 206.137 68.0213 207.432 75.6292L209.404 75.2936C208.143 67.8876 208.086 60.6588 208.98 53.9229L206.998 53.6597ZM214.207 96.5479C217.254 102.774 221.268 108.92 226.385 114.813L227.895 113.502C222.891 107.739 218.973 101.738 216.003 95.6688L214.207 96.5479ZM242.51 129.636C245.359 131.752 248.401 133.803 251.645 135.779L252.685 134.071C249.493 132.126 246.501 130.109 243.702 128.031L242.51 129.636ZM251.645 135.779C254.717 137.65 257.912 139.212 261.208 140.492L261.932 138.627C258.742 137.389 255.653 135.879 252.685 134.071L251.645 135.779ZM281.93 144.989C288.827 145.488 295.927 145.151 303.076 144.171L302.804 142.189C295.769 143.154 288.81 143.481 282.074 142.994L281.93 144.989ZM323.722 139.721C330.484 137.777 337.167 135.413 343.642 132.79L342.891 130.937C336.472 133.537 329.855 135.877 323.169 137.799L323.722 139.721ZM362.814 124.051C369.446 120.699 375.654 117.225 381.254 113.854L380.223 112.14C374.661 115.488 368.497 118.938 361.912 122.266L362.814 124.051ZM398.872 102.263C402.36 99.7307 405.171 97.5037 407.161 95.7515L405.839 94.2504C403.911 95.9483 401.153 98.1354 397.697 100.644L398.872 102.263Z" fill="black"/>
</svg>
