<svg width="95" height="95" viewBox="0 0 95 95" fill="none" xmlns="http://www.w3.org/2000/svg">
<path d="M44.2712 56.2261V46.3291C48.0191 46.2511 50.9081 45.3726 52.9383 43.6939C55.0075 41.9761 56.0421 39.7117 56.0421 36.9007V35.5538C56.0421 33.0552 55.2222 31.0641 53.5825 29.5805C51.9818 28.097 49.7174 27.3552 46.7893 27.3552C43.9393 27.3552 41.6749 28.0384 39.9962 29.4048C38.3564 30.7713 37.1852 32.6648 36.4825 35.0853L34.5499 34.4997C35.3307 31.7278 36.7362 29.5415 38.7664 27.9408C40.7965 26.3011 43.4903 25.4812 46.8479 25.4812C50.4006 25.4812 53.1921 26.4572 55.2222 28.4093C57.2523 30.3223 58.2674 32.8795 58.2674 36.0809C58.2674 39.5946 57.1938 42.347 55.0465 44.3381C52.8992 46.3291 50.0102 47.5199 46.3794 47.9103V56.2261H44.2712ZM45.3838 67.4113C44.4859 67.4113 43.8222 67.2357 43.3927 66.8843C43.0023 66.4939 42.8071 65.9863 42.8071 65.3617V64.7761C42.8071 64.1514 43.0023 63.6634 43.3927 63.312C43.8222 62.9216 44.4859 62.7264 45.3838 62.7264C46.2427 62.7264 46.8674 62.9216 47.2578 63.312C47.6873 63.6634 47.902 64.1514 47.902 64.7761V65.3617C47.902 65.9863 47.6873 66.4939 47.2578 66.8843C46.8674 67.2357 46.2427 67.4113 45.3838 67.4113Z" fill="black"/>
<circle cx="47.0443" cy="47.0443" r="40.8943" stroke="black" stroke-width="1.7"/>
</svg>
