<svg width="96" height="97" viewBox="0 0 96 97" fill="none" xmlns="http://www.w3.org/2000/svg">
<rect x="8.71913" y="9.30007" width="78.0067" height="78.0067" rx="39.0034" fill="white"/>
<rect x="8.71913" y="9.30007" width="78.0067" height="78.0067" rx="39.0034" stroke="black" stroke-width="1.7"/>
<path d="M33.7484 59.8113L33.888 59.834C37.4599 64.7925 43.2141 68.0017 49.6982 68.0017C60.5067 68.0017 69.2997 59.073 69.2997 48.0205C69.2997 36.968 60.5067 28.0393 49.6982 28.0393C40.8049 28.0393 33.2771 34.0826 30.8876 42.3826L37.1663 39.2972L37.3002 39.3429L38.092 40.9541L38.0463 41.0879L29.0231 45.522L28.8867 45.4709L24.7413 35.5679L24.7949 35.4371L26.4509 34.7439L26.5818 34.7975L29.2057 41.0657C32.0629 32.3461 40.1482 26.044 49.6982 26.044C61.6429 26.044 71.2949 35.9005 71.2949 48.0205C71.2949 60.1405 61.6429 69.9969 49.6982 69.9969C42.5364 69.9969 36.1943 66.4493 32.269 61.0002L32.2917 60.8606L33.7484 59.8113Z" fill="black" stroke="black" stroke-width="0.2" stroke-linejoin="bevel"/>
<circle cx="47.9134" cy="48.4943" r="43.8112" stroke="#C9FF4C" stroke-width="7.53391"/>
</svg>
