<svg width="78" height="75" viewBox="0 0 78 75" fill="none" xmlns="http://www.w3.org/2000/svg">
<path d="M4.05573 50.3249L4.77064 45.209L9.191 36.982L14.0644 28.5308L22.632 21.465L29.6995 12.1797L33.3075 4.39337L36.0483 3.32749L38.8006 7.03738L38.6674 13.5108L34.2243 21.4587L31.7739 24.9362L30.8726 26.6017L40.3406 21.3359L50.4034 15.2724L65.0277 3.87389L68.6112 2.73947L71.3567 2.8908L72.3962 5.24144L70.1936 9.448L64.2987 14.6105L55.0123 22.1094L49.4349 26.4032L49.7274 26.6603L50.068 30.8474L48.7866 34.7917L47.8919 37.487L51.8841 43.9058L51.5211 48.7121L50.0958 50.8885L50.9508 52.1302L51.2157 55.3868L48.0843 59.7626L38.0943 67.8807C36.305 69.0565 32.7951 71.3276 33.0705 71.0055C33.3459 70.6833 28.9961 71.8988 26.7868 72.5468L20.8048 72.0031L10.7729 65.7009L4.46441 55.3493L4.05573 50.3249Z" fill="white"/>
<path d="M30.8726 26.6017L31.7739 24.9362L34.2243 21.4587L38.6673 13.5108L38.8006 7.03738L36.0483 3.32749L33.3075 4.39337L29.6995 12.1797L22.632 21.465L14.0644 28.5308L9.191 36.982L4.77064 45.209L4.05573 50.3249L4.46441 55.3493L10.7729 65.7009L20.8048 72.0031L26.7868 72.5468C28.9961 71.8988 33.3459 70.6833 33.0705 71.0055C32.7951 71.3276 36.305 69.0565 38.0943 67.8807L48.0843 59.7626L51.2157 55.3868L50.9508 52.1302L45.3933 44.0591L42.3999 43.1787L39.434 43.7945L30.6195 46.6657L29.6218 49.463L29.8639 52.4405M30.8726 26.6017L40.3406 21.3359L50.4034 15.2724L65.0277 3.87389L68.6112 2.73947L71.3567 2.8908L72.3962 5.24144L70.1936 9.448L64.2987 14.6105L55.0123 22.1094L49.4349 26.4032M30.8726 26.6017L29.7736 29.3136M47.8919 37.487L48.7866 34.7917L50.068 30.8474L49.7274 26.6603L46.8021 24.0885L44.1048 23.3712L40.1543 24.6292L28.7787 30.9867L27.4698 33.4347L27.3848 39.3423L28.0526 40.5992M29.758 51.1378L27.2403 50.3123L25.624 47.8213L26.4098 42.4187L28.3968 40.1966L40.3096 33.7016L43.5867 33.4351L47.0048 36.0606L51.8841 43.9058L51.5211 48.7121L50.0958 50.8885M42.21 53.5905L33.927 56.0437L31.3536 55.6911L29.9321 53.2779L29.8639 52.4405M29.8639 52.4405L23.4847 51.6481L18.8713 52.8663L16.138 54.0252" stroke="black" stroke-width="1.5"/>
</svg>
