<svg width="103" height="99" viewBox="0 0 103 99" fill="none" xmlns="http://www.w3.org/2000/svg">
<path d="M40.6608 35.0289L41.8625 32.8082L45.1297 28.1716L51.0538 17.5744L51.2314 8.94316L47.5617 3.99663L43.9073 5.4178L39.0967 15.7996L29.6733 28.18L18.2499 37.601L11.752 48.8693L5.85818 59.8387L4.90498 66.6598L5.44988 73.3591L13.8612 87.1611L27.2371 95.5641L35.2131 96.2891C38.1588 95.4251 43.9585 93.8044 43.5913 94.2339C43.2241 94.6634 47.904 91.6353 50.2898 90.0675L63.6098 79.2434L67.7849 73.4091L67.4318 69.067L60.0218 58.3055L56.0306 57.1315L52.076 57.9527L40.3233 61.7809L38.993 65.5107L39.3159 69.4806M40.6608 35.0289L53.2848 28.0078L66.7019 19.9232L86.2009 4.72516L90.9789 3.21261L94.6396 3.41438L96.0256 6.54856L93.0887 12.1573L85.2289 19.0407L72.8471 29.0392L65.4105 34.7642M40.6608 35.0289L39.1955 38.6448M63.3532 49.5426L64.5461 45.9489L66.2547 40.6898L65.8006 35.1071L61.9002 31.6779L58.3037 30.7216L53.0364 32.3989L37.869 40.8756L36.1238 44.1396L36.0104 52.0163L36.9008 53.6923M39.1747 67.7437L35.8178 66.6431L33.6626 63.3217L34.7104 56.1183L37.3598 53.1554L53.2435 44.4955L57.6129 44.1401L62.1703 47.6407L68.6762 58.1011L68.1921 64.5094L66.2918 67.4113M55.7774 71.0139L44.7334 74.285L41.3021 73.8148L39.4067 70.5971L39.3159 69.4806M39.3159 69.4806L30.8103 68.4241L24.659 70.0483L21.0147 71.5936" stroke="black" stroke-width="2"/>
</svg>
