<svg width="99" height="95" viewBox="0 0 99 95" fill="none" xmlns="http://www.w3.org/2000/svg">
<path d="M39.3205 33.932L40.4732 31.8018L43.6072 27.3542L49.2897 17.1891L49.4601 8.90978L45.9401 4.16494L42.4346 5.52817L37.8202 15.4866L28.781 27.3623L17.8233 36.3992L11.5904 47.208L5.93686 57.7302L5.02253 64.2732L5.54521 70.6993L13.6136 83.9386L26.4441 91.999L34.0949 92.6944C36.9205 91.8656 42.4837 90.3111 42.1315 90.723C41.7793 91.135 46.2683 88.2303 48.5569 86.7265L61.3338 76.3437L65.3387 70.7472L64.9999 66.5822L57.8921 56.2595L54.0636 55.1334L50.2703 55.9211L38.9968 59.5932L37.7207 63.1709L38.0304 66.9789M39.3205 33.932L51.4297 27.1971L64.2998 19.4421L83.0038 4.86377L87.587 3.41289L91.0985 3.60643L92.4279 6.61282L89.6108 11.9929L82.0714 18.5956L70.1945 28.1865L63.0611 33.678M39.3205 33.932L37.915 37.4004M61.0877 47.8539L62.2319 44.4067L63.8708 39.362L63.4353 34.007L59.6939 30.7176L56.244 29.8003L51.1915 31.4091L36.6425 39.5403L34.9684 42.6712L34.8597 50.2268L35.7137 51.8343M37.8949 65.3129L34.6749 64.2571L32.6076 61.0712L33.6127 54.1614L36.154 51.3194L51.3901 43.0125L55.5814 42.6716L59.953 46.0295L66.1936 56.0634L65.7292 62.2104L63.9064 64.9941M53.8207 68.4498L43.227 71.5874L39.9357 71.1364L38.1176 68.05L38.0304 66.9789M38.0304 66.9789L29.8716 65.9655L23.9711 67.5235L20.4754 69.0058" stroke="black" stroke-width="1.70316"/>
</svg>
