<svg width="151" height="145" viewBox="0 0 151 145" fill="none" xmlns="http://www.w3.org/2000/svg">
<path d="M7.0658 98.0522L8.45916 88.0814L17.0745 72.0467L26.5729 55.5751L43.2713 41.8038L57.0461 23.7065L64.0781 8.53081L69.42 6.45339L74.7842 13.684L74.5245 26.3009L65.8649 41.7915L61.089 48.5691L59.3324 51.8153L77.7857 41.5521L97.3984 29.7343L125.901 7.51834L132.886 5.30733L138.237 5.60227L140.263 10.1837L135.97 18.3824L124.481 28.4442L106.381 43.0597L95.5107 51.4283L96.0809 51.9296L96.7446 60.0902L94.2471 67.7778L92.5034 73.0309L100.284 85.5414L99.5767 94.9088L96.7989 99.1508L98.4653 101.571L98.9815 107.918L92.8785 116.447L73.4077 132.269C69.9202 134.561 63.0793 138.987 63.6161 138.359C64.1529 137.731 55.6751 140.1 51.3691 141.363L39.7101 140.304L20.1577 128.02L7.86231 107.845L7.0658 98.0522Z" fill="white"/>
<path d="M7.0658 98.0522L8.45916 88.0814L17.0745 72.0467L26.5729 55.5751L43.2713 41.8038L57.0461 23.7065L64.0781 8.53081L69.42 6.45339L74.7842 13.684L74.5245 26.3009L65.8649 41.7915L61.089 48.5691L59.3324 51.8153L77.7857 41.5521L97.3984 29.7343L125.901 7.51834L132.886 5.30733L138.237 5.60227L140.263 10.1837L135.97 18.3824L124.481 28.4442L106.381 43.0597L95.5107 51.4283L96.0809 51.9296L96.7446 60.0902L94.2471 67.7778L92.5034 73.0309L100.284 85.5414L99.5767 94.9088L96.7989 99.1508L98.4653 101.571L98.9815 107.918L92.8785 116.447L73.4077 132.269C69.9202 134.561 63.0793 138.987 63.6161 138.359C64.1529 137.731 55.6751 140.1 51.3691 141.363L39.7101 140.304L20.1577 128.02L7.86231 107.845L7.0658 98.0522Z" fill="white"/>
<path d="M59.3324 51.8153L61.089 48.5691L65.8649 41.7915L74.5245 26.3009L74.7842 13.684L69.42 6.45339L64.0781 8.53081L57.0461 23.7065L43.2713 41.8038L26.5729 55.5751L17.0745 72.0467L8.45916 88.0814L7.0658 98.0523L7.86231 107.845L20.1577 128.02L39.7101 140.304L51.3691 141.363C55.6751 140.1 64.1529 137.731 63.6161 138.359C63.0794 138.987 69.9202 134.561 73.4077 132.269L92.8785 116.447L98.9815 107.918L98.4653 101.571L87.6336 85.8402L81.7994 84.1241L76.0188 85.3245L58.8391 90.9204L56.8945 96.3725L57.3665 102.176M59.3324 51.8153L77.7857 41.5521L97.3984 29.7343L125.901 7.51834L132.886 5.30733L138.237 5.60227L140.263 10.1837L135.97 18.3824L124.481 28.4442L106.381 43.0597L95.5107 51.4283M59.3324 51.8153L57.1905 57.1008M92.5034 73.0309L94.2471 67.7778L96.7446 60.0902L96.0809 51.9296L90.3794 46.9169L85.1222 45.5191L77.4227 47.9708L55.2514 60.3618L52.7003 65.133L52.5347 76.6469L53.8361 79.0967M57.16 99.6367L52.2531 98.0278L49.1027 93.1727L50.6343 82.643L54.5071 78.312L77.7253 65.6532L84.1124 65.1337L90.7743 70.2508L100.284 85.5414L99.5767 94.9088L96.7989 99.1508M81.4293 104.417L65.2856 109.198L60.2699 108.511L57.4993 103.808L57.3665 102.176M57.3665 102.176L44.9333 100.631L35.9416 103.005L30.6144 105.264" stroke="black" stroke-width="5.28349"/>
</svg>
