<svg width="103" height="131" viewBox="0 0 103 131" fill="none" xmlns="http://www.w3.org/2000/svg">
<path d="M3.38672 85.0192L13.6429 40.6557L15.3174 35.5613L21.3874 29.4056L25.7829 23.8867L31.8529 13.6979L37.9229 9.66485L46.2953 12.4243L50.4816 15.2899L62.4122 9.02805L75.1802 3.29688H81.6688L86.2736 7.32992V15.2899L85.2951 18.3661L87.3202 18.1555L91.7157 23.8867L93.8088 31.9528L92.9716 40.8679L91.0459 47.8727L93.8088 50.2076L97.3671 56.3633V67.1889L94.646 72.2324L96.1112 73.1323L100.088 79.288L97.3671 89.2645L57.5981 125.774L45.0395 128.109L21.3874 119.194L6.73568 102.85L3.38672 85.0192Z" fill="white"/>
<path d="M40.8533 37.6839L45.0395 38.063M45.0395 38.063L46.2953 41.717L47.7605 51.6935L46.2953 62.519L41.4812 78.439M45.0395 38.063L50.4816 38.5557M50.4816 15.2899L46.2953 12.4243L37.9229 9.66485L31.8529 13.6979L25.7829 23.8867L21.3874 29.4056L15.3174 35.5613L13.6429 40.6557L3.38672 85.0192L6.73568 102.85L21.3874 119.194L45.0395 128.109L57.5981 125.774L97.3671 89.2645L100.088 79.288L96.1112 73.1323L81.2502 64.0049H76.436L60.5284 70.5851L53.8305 74.8304V83.7456L60.5284 89.9013L67.8543 89.2645L78.3198 84.5947M50.4816 15.2899L54.6678 18.1555L68.9009 21.3395L69.6335 23.4621M50.4816 15.2899L62.4122 9.02805L75.1802 3.29688H81.6688L86.2736 7.32992V15.2899L85.2271 18.58M69.6335 23.4621L70.366 25.5848L67.8543 33.2263L60.5284 37.6839L52.5747 38.7453L50.4816 38.5557M69.6335 23.4621L79.1571 19.0045L87.3202 18.1555L91.7157 23.8867L93.8088 31.9528L92.9716 40.8679L91.0459 47.8727M50.4816 38.5557L47.7605 42.7783V47.6604L51.1095 53.6039L54.0398 56.7879M53.8305 76.3163L50.4816 74.8304C49.3652 72.637 47.1326 68.1228 47.1326 67.6134C47.1326 67.104 47.5512 63.4388 47.7605 61.67L54.8771 55.5143L63.6681 50.2076L75.1802 44.6887L80.6222 42.7783L83.134 44.0519L90.0412 47.0236L93.8088 50.2076L97.3671 56.3633V67.1889L94.646 72.2324" stroke="black" stroke-width="5.28349"/>
</svg>
