<svg width="52" height="67" viewBox="0 0 52 67" fill="none" xmlns="http://www.w3.org/2000/svg">
<path d="M0.877197 43.2311L6.13944 20.4691L6.99858 17.8553L10.113 14.6969L12.3682 11.8653L15.4826 6.63769L18.597 4.56842L22.8927 5.98423L25.0405 7.4545L31.1619 4.24169L37.7129 1.30115H41.042L43.4047 3.37042V7.4545L42.9026 9.03285L43.9416 8.92477L46.1969 11.8653L47.2708 16.0039L46.8412 20.578L45.8532 24.172L47.2708 25.37L49.0965 28.5284V34.0827L47.7004 36.6705L48.4521 37.1322L50.4926 40.2906L49.0965 45.4093L28.6919 64.1416L22.2483 65.3396L10.113 60.7654L2.59548 52.3794L0.877197 43.2311Z" fill="white"/>
<path d="M20.1005 18.9444L22.2483 19.1389M22.2483 19.1389L22.8927 21.0137L23.6444 26.1324L22.8927 31.6867L20.4227 39.8549M22.2483 19.1389L25.0405 19.3917M25.0405 7.4545L22.8927 5.98423L18.597 4.56842L15.4826 6.63769L12.3682 11.8653L10.113 14.6969L6.99858 17.8553L6.13944 20.4691L0.877197 43.2311L2.59548 52.3794L10.113 60.7654L22.2483 65.3396L28.6919 64.1416L49.0965 45.4093L50.4926 40.2906L48.4521 37.1322L40.8272 32.4491H38.3572L30.1954 35.8253L26.7588 38.0035V42.5776L30.1954 45.736L33.9541 45.4093L39.3238 43.0133M25.0405 7.4545L27.1884 8.92477L34.4911 10.5584L34.867 11.6475M25.0405 7.4545L31.1619 4.24169L37.7129 1.30115H41.042L43.4047 3.37042V7.4545L42.8677 9.14259M34.867 11.6475L35.2428 12.7366L33.9541 16.6573L30.1954 18.9444L26.1145 19.4889L25.0405 19.3917M34.867 11.6475L39.7533 9.36041L43.9416 8.92477L46.1969 11.8653L47.2708 16.0039L46.8412 20.578L45.8532 24.172M25.0405 19.3917L23.6444 21.5582V24.0631L25.3627 27.1126L26.8662 28.7462M26.7588 38.7658L25.0405 38.0035C24.4678 36.8781 23.3223 34.5619 23.3223 34.3006C23.3223 34.0392 23.537 32.1587 23.6444 31.2511L27.2958 28.0928L31.8063 25.37L37.7129 22.5384L40.5051 21.5582L41.7938 22.2117L45.3377 23.7364L47.2708 25.37L49.0965 28.5284V34.0827L47.7004 36.6705" stroke="black" stroke-width="1.5"/>
</svg>
