<svg width="67" height="85" viewBox="0 0 67 85" fill="none" xmlns="http://www.w3.org/2000/svg">
<path d="M26.2942 24.2542L29.0413 24.5029M29.0413 24.5029L29.8654 26.9007L30.8269 33.4474L29.8654 40.5512L26.7063 50.9981M29.0413 24.5029L32.6124 24.8262M32.6124 9.55892L29.8654 7.67849L24.3713 5.8677L20.3881 8.51424L16.4049 15.2002L13.5205 18.8218L9.53731 22.8612L8.4385 26.2042L1.70825 55.3161L3.90588 67.0166L13.5205 77.742L29.0413 83.5922L37.2824 82.06L63.3793 58.1019L65.1648 51.5552L62.5551 47.5158L52.8032 41.5263H49.6441L39.2053 45.8443L34.8101 48.6301V54.4804L39.2053 58.5198L44.0126 58.1019L50.8802 55.0375M32.6124 9.55892L35.3595 11.4394L44.6994 13.5287L45.1801 14.9216M32.6124 9.55892L40.4415 5.44983L48.82 1.68896H53.0779L56.0996 4.3355V9.55892L55.4128 11.7179M45.1801 14.9216L45.6609 16.3145L44.0126 21.329L39.2053 24.2542L33.9859 24.9506L32.6124 24.8262M45.1801 14.9216L51.4296 11.9965L56.7864 11.4394L59.6708 15.2002L61.0443 20.4933L60.4949 26.3435L59.2312 30.9401M32.6124 24.8262L30.8269 27.5971V30.8008L33.0245 34.701L34.9474 36.7904M34.8101 49.6052L32.6124 48.6301C31.8799 47.1908 30.4148 44.2285 30.4148 43.8942C30.4148 43.5599 30.6895 41.1548 30.8269 39.9941L35.4968 35.9546L41.2656 32.4723L48.82 28.8508L52.3911 27.5971L54.0393 28.4329L58.5719 30.383L61.0443 32.4723L63.3793 36.5118V43.6156L61.5937 46.9253" stroke="black" stroke-width="1.70316"/>
</svg>
