<svg width="69" height="89" viewBox="0 0 69 89" fill="none" xmlns="http://www.w3.org/2000/svg">
<path d="M27.298 25.1524L30.1618 25.4117M30.1618 25.4117L31.0209 27.9114L32.0232 34.7364L31.0209 42.1422L27.7275 53.0331M30.1618 25.4117L33.8847 25.7488M33.8847 9.83253L31.0209 7.87217L25.2933 5.98441L21.1408 8.74344L16.9883 15.7136L13.9813 19.4891L9.82877 23.7003L8.68325 27.1854L1.66693 57.5347L3.95797 69.7325L13.9813 80.9138L30.1618 87.0127L38.7532 85.4153L65.9593 60.4389L67.8208 53.6139L65.1002 49.4028L54.9337 43.1587H51.6403L40.7578 47.6602L36.1758 50.5645V56.6634L40.7578 60.8745L45.7695 60.4389L52.929 57.2442M33.8847 9.83253L36.7485 11.7929L46.4854 13.9711L46.9866 15.4232M33.8847 9.83253L42.0466 5.54877L50.7812 1.62805H55.22L58.3702 4.38708V9.83253L57.6543 12.0833M46.9866 15.4232L47.4878 16.8753L45.7695 22.1029L40.7578 25.1524L35.3166 25.8784L33.8847 25.7488M46.9866 15.4232L53.5018 12.3737L59.0862 11.7929L62.0932 15.7136L63.5251 21.2317L62.9523 27.3306L61.635 32.1226M33.8847 25.7488L32.0232 28.6375V31.9773L34.3143 36.0433L36.3189 38.2215M36.1758 51.581L33.8847 50.5645C33.121 49.064 31.5937 45.9758 31.5937 45.6273C31.5937 45.2788 31.8801 42.7714 32.0232 41.5613L36.8917 37.3502L42.9057 33.7199L50.7812 29.9444L54.5041 28.6375L56.2224 29.5087L60.9477 31.5417L63.5251 33.7199L65.9593 37.931V45.3368L64.0978 48.7872" stroke="black" stroke-width="2"/>
</svg>
