<svg width="121" height="137" viewBox="0 0 121 137" fill="none" xmlns="http://www.w3.org/2000/svg">
<path d="M2.73438 101.718V87.0439L6.43413 69.5168L11.5727 48.9326L15.8891 35.2778L18.9722 19.3811L22.8775 14.286L37.882 7.96806L45.4871 3.48438L48.7757 5.52241L50.2145 10.8213L48.7757 18.7697L37.882 27.737L36.8543 33.2397V46.8946L38.2931 49.3402L42.6095 46.8946L56.3808 37.3158L68.9189 32.0169L79.8126 27.9408V24.2724L84.3345 18.7697L93.995 17.9544L98.5169 19.7887L104.067 29.5713V33.2397L102.951 36.3731L104.067 36.2968L112.288 37.9272L117.427 45.0604L115.988 51.5821L110.233 56.0658L104.375 57.0848L103.244 59.5304L104.067 61.5954L112.905 62.5875L117.427 68.0902L115.988 76.2423L110.849 80.1146L105.094 80.9298L100.778 80.2055L107.561 84.5983L106.533 91.9352L102.011 98.2532L87.4176 109.87L70.7687 123.729L58.0251 130.047L39.3208 133.919L15.8891 122.302L8.28401 112.723L2.73438 101.718Z" fill="white"/>
<path d="M2.73438 101.718V87.0439L6.43413 69.5168L11.5727 48.9326L15.8891 35.2778L18.9722 19.3811L22.8775 14.286L37.882 7.96806L45.4871 3.48438L48.7757 5.52241L50.2145 10.8213L48.7757 18.7697L37.882 27.737L36.8543 33.2397V46.8946L38.2931 49.3402L42.6095 46.8946L56.3808 37.3158L68.9189 32.0169L79.8126 27.9408V24.2724L84.3345 18.7697L93.995 17.9544L98.5169 19.7887L104.067 29.5713V33.2397L102.951 36.3731L104.067 36.2968L112.288 37.9272L117.427 45.0604L115.988 51.5821L110.233 56.0658L104.375 57.0848L103.244 59.5304L104.067 61.5954L112.905 62.5875L117.427 68.0902L115.988 76.2423L110.849 80.1146L105.094 80.9298L100.778 80.2055L107.561 84.5983L106.533 91.9352L102.011 98.2532L87.4176 109.87L70.7687 123.729L58.0251 130.047L39.3208 133.919L15.8891 122.302L8.28401 112.723L2.73438 101.718Z" fill="white"/>
<path d="M38.2931 49.3402L36.8543 46.8946V33.2397L37.882 27.737L48.7757 18.7697L50.2145 10.8213L48.7757 5.52241L45.4871 3.48438L37.882 7.96806L22.8775 14.286L18.9722 19.3811L15.8891 35.2778L11.5727 48.9326L6.43413 69.5168L2.73438 87.0439V101.718L8.284 112.723L15.8891 122.302L39.3208 133.919L58.0251 130.047L70.7687 123.729L87.4176 109.87L102.011 98.2532L106.533 91.9352L107.561 84.5983L100.778 80.2055M38.2931 49.3402L42.6095 46.8946L56.3808 37.3158L68.9189 32.0169L79.8126 27.9408M38.2931 49.3402L45.076 61.3647L46.3092 83.3755L42.6095 96.8265M95.4337 37.3158L84.9511 35.2778L79.8126 31.2017V24.2724L84.3345 18.7697L93.995 17.9544L98.5169 19.7887L104.067 29.5713V33.2397L102.833 36.7044M104.375 57.0848L110.233 56.0658L115.988 51.5821L117.427 45.0604L112.288 37.9272L104.067 36.2968L98.1058 36.7044L81.0458 40.1691L73.2352 45.0604L71.3854 53.8239L76.5239 59.938L84.9511 59.1228L98.5169 58.1038L104.375 57.0848ZM104.375 57.0848L103.244 59.5304L104.067 61.5954M104.067 61.5954L112.905 62.5875L117.427 68.0902L115.988 76.2423L110.849 80.1146L105.094 80.9298L100.778 80.2055M104.067 61.5954L102.011 61.3647L88.8564 59.938H81.6624C78.4423 59.938 71.6731 60.3456 72.002 60.3456L67.6856 62.9951L65.4246 69.1092L69.741 75.8347L74.4685 77.8234M74.4685 77.8234L76.5239 78.688H91.734L100.778 80.2055M74.4685 77.8234L68.5078 78.2804L66.2468 81.3374L66.8634 87.2477L74.4685 92.7504L89.473 94.5847H95.6393" stroke="black" stroke-width="5.28349"/>
</svg>
