<svg width="62" height="70" viewBox="0 0 62 70" fill="none" xmlns="http://www.w3.org/2000/svg">
<path d="M1.52637 52.2602V44.7314L3.42463 35.7386L6.06111 25.1773L8.27575 18.1713L9.85763 10.015L11.8614 7.40083L19.5599 4.15925L23.4618 1.85876L25.1492 2.90444L25.8874 5.62319L25.1492 9.70131L19.5599 14.3023L19.0326 17.1256V24.1316L19.7708 25.3864L21.9854 24.1316L29.0512 19.2169L35.4842 16.4982L41.0735 14.4068V12.5246L43.3936 9.70131L48.3502 9.28304L50.6703 10.2241L53.5177 15.2434V17.1256L52.9454 18.7332L53.5177 18.6941L57.736 19.5306L60.3725 23.1905L59.6343 26.5366L56.6814 28.8371L53.6759 29.36L53.0958 30.6148L53.5177 31.6743L58.0524 32.1833L60.3725 35.0066L59.6343 39.1893L56.9978 41.1761L54.045 41.5943L51.8303 41.2227L55.3105 43.4766L54.7832 47.241L52.4631 50.4826L44.9755 56.4429L36.4333 63.5535L29.8949 66.7951L20.2981 68.7818L8.27575 62.8215L4.37376 57.9068L1.52637 52.2602Z" fill="white"/>
<path d="M19.7708 25.3864L19.0326 24.1316V17.1256L19.5599 14.3023L25.1492 9.70131L25.8874 5.62319L25.1492 2.90444L23.4618 1.85876L19.5599 4.15925L11.8614 7.40083L9.85763 10.015L8.27575 18.1713L6.06111 25.1773L3.42463 35.7386L1.52637 44.7314V52.2602L4.37376 57.9068L8.27575 62.8215L20.2981 68.7818L29.8949 66.7951L36.4333 63.5535L44.9755 56.4429L52.4631 50.4826L54.7832 47.241L55.3105 43.4766L51.8303 41.2227M19.7708 25.3864L21.9854 24.1316L29.0512 19.2169L35.4842 16.4982L41.0735 14.4068M19.7708 25.3864L23.2509 31.5559L23.8837 42.8491L21.9854 49.7506M49.0884 19.2169L43.71 18.1713L41.0735 16.0799V12.5246L43.3936 9.70131L48.3502 9.28304L50.6703 10.2241L53.5177 15.2434V17.1256L52.8849 18.9032M53.6759 29.36L56.6814 28.8371L59.6343 26.5366L60.3725 23.1905L57.736 19.5306L53.5177 18.6941L50.4594 18.9032L41.7063 20.6809L37.6988 23.1905L36.7497 27.6869L39.3862 30.8239L43.71 30.4056L50.6703 29.8828L53.6759 29.36ZM53.6759 29.36L53.0958 30.6148L53.5177 31.6743M53.5177 31.6743L58.0524 32.1833L60.3725 35.0066L59.6343 39.1893L56.9978 41.1761L54.045 41.5943L51.8303 41.2227M53.5177 31.6743L52.4631 31.5559L45.7137 30.8239H42.0226C40.3705 30.8239 36.8973 31.033 37.0661 31.033L34.8514 32.3924L33.6914 35.5294L35.906 38.9802L38.3316 40.0005M38.3316 40.0005L39.3862 40.4441H47.1901L51.8303 41.2227M38.3316 40.0005L35.2733 40.235L34.1132 41.8035L34.4296 44.8359L38.3316 47.6592L46.0301 48.6003H49.1939" stroke="black" stroke-width="1.5"/>
</svg>
