<svg width="78" height="89" viewBox="0 0 78 89" fill="none" xmlns="http://www.w3.org/2000/svg">
<path d="M24.7568 31.9355L23.8126 30.3306V21.3702L24.487 17.7592L31.6356 11.8747L32.5798 6.65894L31.6356 3.18174L29.4775 1.84436L24.487 4.78661L14.6409 8.9325L12.0782 12.276L10.055 22.7076L7.22252 31.668L3.85055 45.1756L1.42273 56.6771V66.3063L5.06446 73.5282L10.055 79.8139L25.4312 87.437L37.7052 84.8959L46.0677 80.75L56.9929 71.6558L66.5693 64.0327L69.5366 59.8868L70.211 55.0723L65.76 52.1897M24.7568 31.9355L27.5892 30.3306L36.6261 24.0449L44.8537 20.5677L52.0023 17.893M24.7568 31.9355L29.2078 39.8261L30.0171 54.2698L27.5892 63.0966M62.2531 24.0449L55.3743 22.7076L52.0023 20.0328V15.4857L54.9697 11.8747L61.309 11.3398L64.2763 12.5434L67.918 18.9629V21.3702L67.1088 23.6437M68.1204 37.0176L71.9644 36.3489L75.741 33.4066L76.6852 29.127L73.3132 24.4462L67.918 23.3762L64.0066 23.6437L52.8116 25.9173L47.6862 29.127L46.4723 34.8778L49.8443 38.8899L55.3743 38.355L64.2763 37.6863L68.1204 37.0176ZM68.1204 37.0176L67.3785 38.6224L67.918 39.9775M67.918 39.9775L73.7178 40.6285L76.6852 44.2394L75.741 49.589L72.369 52.13L68.5924 52.665L65.76 52.1897M67.918 39.9775L66.5693 39.8261L57.937 38.8899H53.2162C51.1031 38.8899 46.6611 39.1574 46.8769 39.1574L44.0445 40.896L42.5608 44.9081L45.3933 49.3215L48.4955 50.6265M48.4955 50.6265L49.8443 51.1938H59.8253L65.76 52.1897M48.4955 50.6265L44.584 50.9264L43.1003 52.9324L43.505 56.8109L48.4955 60.4218L58.3416 61.6254H62.388" stroke="black" stroke-width="1.70316"/>
</svg>
