<svg width="82" height="92" viewBox="0 0 82 92" fill="none" xmlns="http://www.w3.org/2000/svg">
<path d="M25.8584 33.0751L24.8742 31.4021V22.0607L25.5772 18.2963L33.0297 12.1617L34.0139 6.72419L33.0297 3.09919L30.7799 1.70496L25.5772 4.77226L15.3125 9.09438L12.6409 12.58L10.5317 23.455L7.57888 32.7963L4.06358 46.878L1.53256 58.8684V68.9069L5.32909 76.4357L10.5317 82.9886L26.5615 90.9357L39.3572 88.2867L48.0752 83.9646L59.4647 74.4838L69.4482 66.5367L72.5417 62.2146L73.2447 57.1953L68.6045 54.1902M25.8584 33.0751L28.8113 31.4021L38.2323 24.8492L46.8096 21.2242L54.2621 18.4357M25.8584 33.0751L30.4986 41.3011L31.3423 56.3588L28.8113 65.5607M64.9486 24.8492L57.7774 23.455L54.2621 20.6665V15.9261L57.3556 12.1617L63.9643 11.604L67.0578 12.8588L70.8543 19.5511V22.0607L70.0106 24.4309M71.0652 38.3732L75.0727 37.6761L79.0098 34.6088L79.9941 30.1473L76.4788 25.2675L70.8543 24.1521L66.7766 24.4309L55.1058 26.8011L49.7625 30.1473L48.497 36.1425L52.0123 40.3251L57.7774 39.7675L67.0578 39.0703L71.0652 38.3732ZM71.0652 38.3732L70.2919 40.0463L70.8543 41.4589M70.8543 41.4589L76.9006 42.1376L79.9941 45.9021L79.0098 51.479L75.4945 54.128L71.5574 54.6857L68.6045 54.1902M70.8543 41.4589L69.4482 41.3011L60.449 40.3251H55.5276C53.3247 40.3251 48.6938 40.604 48.9188 40.604L45.966 42.4165L44.4192 46.5992L47.3721 51.2001L50.6062 52.5606M50.6062 52.5606L52.0123 53.1521H62.4176L68.6045 54.1902M50.6062 52.5606L46.5284 52.8732L44.9817 54.9646L45.4035 59.0078L50.6062 62.7723L60.8709 64.0271H65.0892" stroke="black" stroke-width="2"/>
</svg>
