<svg width="80" height="78" viewBox="0 0 80 78" fill="none" xmlns="http://www.w3.org/2000/svg">
<path d="M25.1386 72.3972L35.9102 74.7049L45.1566 76.8203L51.9246 72.3972L55.7375 63.9357L58.8832 52.9742L61.9336 48.5511L70.7034 40.8588L78.52 32.9742L78.9013 30.1857L77.5667 29.0319L74.993 29.5126L70.7034 32.9742L64.1261 38.5511L57.1674 42.2049L55.1656 41.9165L54.8796 40.4742L55.7375 38.0703L64.1261 22.9742L68.1297 14.0319L67.7484 11.8203L66.0325 10.9549L63.3635 11.5319L59.6458 17.4934L55.7375 24.6088L50.1134 33.4549L47.7303 34.3203L46.3005 33.4549L48.8742 20.378L53.0685 6.05108V3.16647L50.9714 1.82031L47.349 4.128L44.9659 9.89724L41.3436 20.9549L38.8652 31.8203L36.9587 32.9742L35.3382 31.8203L33.9084 21.8203L34.4803 7.78185L32.5738 4.99339L29.4282 5.57031L27.903 9.12801L27.4263 19.3203V32.4934L26.6638 37.0126L25.2339 45.2819L23.3274 46.8203L20.563 45.8588L16.3688 40.0895L11.5073 35.9549L6.55041 34.4165L2.35616 34.8972L1.59357 36.3395L2.35616 38.1665L10.9353 44.6088L13.1278 47.878L16.3688 57.3972L19.2285 66.7242L25.1386 72.3972Z" fill="white" stroke="black" stroke-width="1.5"/>
</svg>
