<svg width="157" height="153" viewBox="0 0 157 153" fill="none" xmlns="http://www.w3.org/2000/svg">
<path d="M49.2999 141.165L70.2939 145.663L88.3154 149.786L101.506 141.165L108.938 124.674L115.069 103.309L121.014 94.6886L138.107 79.6961L153.341 64.3289L154.084 58.8941L151.483 56.6452L146.467 57.5822L138.107 64.3289L125.287 75.1984L111.725 82.3198L107.823 81.7576L107.266 78.9465L108.938 74.2614L125.287 44.8387L133.09 27.4099L132.347 23.0996L129.003 21.4129L123.801 22.5374L116.555 34.1565L108.938 48.0246L97.9764 65.2659L93.3317 66.9525L90.5448 65.2659L95.5611 39.7787L103.736 11.8552V6.23306L99.6485 3.60938L92.5885 8.10711L87.9438 19.3515L80.8839 40.9031L76.0534 62.08L72.3376 64.3289L69.1792 62.08L66.3924 42.5898L67.5071 15.2285L63.7913 9.79377L57.6603 10.9182L54.6877 17.8522L53.7588 37.7172V63.3918L52.2725 72.1999L49.4856 88.3168L45.7699 91.3153L40.382 89.4412L32.2073 78.1969L22.7321 70.1384L13.0711 67.1399L4.89646 68.077L3.41016 70.8881L4.89646 74.4488L21.6174 87.005L25.8905 93.3768L32.2073 111.93L37.781 130.108L49.2999 141.165Z" fill="white"/>
<path d="M49.2999 141.165L70.2939 145.663L88.3154 149.786L101.506 141.165L108.938 124.674L115.069 103.309L121.014 94.6886L138.107 79.6961L153.341 64.3289L154.084 58.8941L151.483 56.6452L146.467 57.5822L138.107 64.3289L125.287 75.1984L111.725 82.3198L107.823 81.7576L107.266 78.9465L108.938 74.2614L125.287 44.8387L133.09 27.4099L132.347 23.0996L129.003 21.4129L123.801 22.5374L116.555 34.1565L108.938 48.0246L97.9764 65.2659L93.3317 66.9525L90.5448 65.2659L95.5611 39.7787L103.736 11.8552V6.23306L99.6485 3.60938L92.5885 8.10711L87.9438 19.3515L80.8839 40.9031L76.0534 62.08L72.3376 64.3289L69.1792 62.08L66.3924 42.5898L67.5071 15.2285L63.7913 9.79377L57.6603 10.9182L54.6877 17.8522L53.7588 37.7172V63.3918L52.2725 72.1999L49.4856 88.3168L45.7699 91.3153L40.382 89.4412L32.2073 78.1969L22.7321 70.1384L13.0711 67.1399L4.89646 68.077L3.41016 70.8881L4.89646 74.4488L21.6174 87.005L25.8905 93.3768L32.2073 111.93L37.781 130.108L49.2999 141.165Z" fill="white" stroke="black" stroke-width="5.28349"/>
</svg>
