<svg width="102" height="99" viewBox="0 0 102 99" fill="none" xmlns="http://www.w3.org/2000/svg">
<path d="M31.6778 91.9451L45.4544 94.8965L57.2802 97.6021L65.9363 91.9451L70.813 81.123L74.8362 67.1035L78.7375 61.4466L89.9538 51.6083L99.951 41.5241L100.439 37.9578L98.7318 36.4821L95.4401 37.0969L89.9538 41.5241L81.5416 48.6569L72.6417 53.33L70.0815 52.9611L69.7157 51.1164L70.813 48.042L81.5416 28.7345L86.6621 17.2975L86.1744 14.469L83.9799 13.3622L80.5663 14.1001L75.8115 21.7247L70.813 30.8251L63.6199 42.139L60.572 43.2458L58.7432 42.139L62.035 25.414L67.3993 7.09035V3.40101L64.7172 1.67932L60.0843 4.63079L57.0364 12.0095L52.4036 26.1519L49.2338 40.0484L46.7954 41.5241L44.7229 40.0484L42.8941 27.2587L43.6256 9.30395L41.1873 5.73759L37.164 6.47546L35.2134 11.0256L34.6038 24.0613V40.9093L33.6285 46.6892L31.7997 57.2653L29.3614 59.233L25.8258 58.0032L20.4615 50.6245L14.2438 45.3365L7.90411 43.3688L2.53978 43.9837L1.56445 45.8284L2.53978 48.165L13.5123 56.4045L16.3163 60.5857L20.4615 72.7605L24.119 84.6894L31.6778 91.9451Z" stroke="black" stroke-width="1.70316"/>
</svg>
