<svg width="106" height="103" viewBox="0 0 106 103" fill="none" xmlns="http://www.w3.org/2000/svg">
<path d="M32.6822 95.4229L47.0443 98.4998L59.3729 101.32L68.3969 95.4229L73.4808 84.1408L77.6751 69.5254L81.7422 63.628L93.4353 53.3716L103.857 42.8588L104.366 39.1408L102.586 37.6024L99.1547 38.2434L93.4353 42.8588L84.6655 50.2947L75.3873 55.1665L72.7182 54.7819L72.3369 52.8588L73.4808 49.6536L84.6655 29.5254L90.0036 17.6024L89.4952 14.6536L87.2074 13.4998L83.6487 14.269L78.6918 22.2177L73.4808 31.7049L65.982 43.4998L62.8045 44.6536L60.898 43.4998L64.3297 26.0639L69.922 6.96134V3.11518L67.1259 1.32031L62.2961 4.39724L59.1187 12.0895L54.2889 26.8331L50.9844 41.3203L48.4424 42.8588L46.2817 41.3203L44.3752 27.987L45.1378 9.26903L42.5959 5.55108L38.4016 6.32031L36.368 11.0639L35.7325 24.6536V42.2178L34.7157 48.2434L32.8093 59.269L30.2673 61.3203L26.5814 60.0383L20.9891 52.346L14.5071 46.8331L7.89794 44.7819L2.30561 45.4229L1.28882 47.346L2.30561 49.7819L13.7445 58.3716L16.6677 62.7306L20.9891 75.4229L24.8021 87.8588L32.6822 95.4229Z" stroke="black" stroke-width="2"/>
</svg>
