<svg width="80" height="89" viewBox="0 0 80 89" fill="none" xmlns="http://www.w3.org/2000/svg">
<path d="M66.2161 67.2327L60.0039 65.0286L57.2024 61.7224L57.5678 57.4367L59.4558 56.6408M65.2416 57.1007L70.8447 58.9061L73.2808 63.6816L71.941 67.6L65.9724 70.1715L56.1061 73.4776L41.6111 83.1512L28.8214 87.437L15.7881 83.1512L10.5504 77.396L4.7037 72.1307L1.41492 63.6816L2.8766 50.2121L4.7037 38.212L8.4797 25.2323L9.45416 18.2527L12.9865 12.4975L15.7881 3.68111L19.3205 1.84436L22.8529 5.27296L23.9491 10.5383L23.3401 17.518L21.513 23.6405V33.314L23.3401 34.661L27.2379 32.4569L38.6878 24.7425L44.6563 22.416L53.9136 18.1302L61.4656 13.5996L64.1149 10.5383L68.165 6.37501L73.7681 5.64031L75.3516 9.19136L73.7681 15.1914L70.9665 19.3547M65.2416 57.1007L61.3438 55.8448L59.4558 56.6408M65.2416 57.1007L65.7288 55.355L72.4282 53.3958L75.3516 50.5795L76.8132 46.5386L75.3516 41.6406L69.8703 37.5998L68.165 37.661M63.7799 44.3345V40.661L64.1149 40.2937M63.7799 44.3345L64.6326 48.4978L68.774 51.5591M63.7799 44.3345L62.1964 45.0692L60.2475 45.559L60.6129 43.4774L64.1149 40.2937M64.1149 40.2937L66.4597 37.7222L68.165 37.661M68.165 37.661L73.2808 34.661L76.4478 31.8446L78.1531 26.9466L76.4478 21.9262L72.7936 19.4772L70.9665 19.3547M68.165 34.661L65.2416 31.9671L64.1149 29.3956L64.5564 27.5589M64.5564 27.5589L64.998 25.7221L65.5638 24.2527M64.5564 27.5589L60.6129 30.7426L53.5482 34.661L52.2083 33.314L53.1827 31.8446L59.2731 28.2936L65.5638 24.2527M65.5638 24.2527L66.4597 21.9262L69.1394 19.2323L70.9665 19.3547M47.7014 30.7426L54.4008 38.0896L58.664 48.4978L59.4558 56.6408M23.9491 39.559L27.2379 53.3958L21.513 68.8245" stroke="black" stroke-width="1.70316"/>
</svg>
