<svg width="83" height="92" viewBox="0 0 83 92" fill="none" xmlns="http://www.w3.org/2000/svg">
<path d="M68.7869 69.8727L62.3107 67.5749L59.3901 64.1282L59.771 59.6603L61.7393 58.8305M67.771 59.31L73.6123 61.1921L76.152 66.1707L74.7552 70.2556L68.5329 72.9364L58.2472 76.3831L43.1361 86.4678L29.8028 90.9357L16.2155 86.4678L10.7552 80.468L4.65992 74.9789L1.23135 66.1707L2.75516 52.1286L4.65992 39.6185L8.59643 26.087L9.6123 18.8107L13.2948 12.8109L16.2155 3.61978L19.898 1.70496L23.5806 5.27929L24.7234 10.7685L24.0885 18.0448L22.1837 24.4275V34.5123L24.0885 35.9165L28.152 33.6187L40.0885 25.5764L46.3107 23.151L55.9615 18.6831L63.8345 13.9598L66.5964 10.7685L70.8187 6.42819L76.6599 5.66226L78.3107 9.36425L76.6599 15.6193L73.7393 19.9596M67.771 59.31L63.7075 58.0008L61.7393 58.8305M67.771 59.31L68.279 57.4901L75.2631 55.4477L78.3107 52.5116L79.8345 48.299L78.3107 43.1928L72.5964 38.9802L70.8187 39.044M66.2472 46.0012V42.1716L66.5964 41.7886M66.2472 46.0012L67.1361 50.3415L71.4536 53.5328M66.2472 46.0012L64.5964 46.7671L62.5647 47.2777L62.9456 45.1076L66.5964 41.7886M66.5964 41.7886L69.0409 39.1078L70.8187 39.044M70.8187 39.044L76.152 35.9165L79.4536 32.9804L81.2314 27.8742L79.4536 22.6404L75.644 20.0873L73.7393 19.9596M70.8187 35.9165L67.771 33.1081L66.5964 30.4273L67.0567 28.5125M67.0567 28.5125L67.5171 26.5977L68.1069 25.0658M67.0567 28.5125L62.9456 31.8315L55.5806 35.9165L54.1837 34.5123L55.1996 32.9804L61.5488 29.2784L68.1069 25.0658M68.1069 25.0658L69.0409 22.6404L71.8345 19.8319L73.7393 19.9596M49.4853 31.8315L56.4694 39.4908L60.9139 50.3415L61.7393 58.8305M24.7234 41.0227L28.152 55.4477L22.1837 71.5322" stroke="black" stroke-width="2"/>
</svg>
