<svg width="96" height="87" viewBox="0 0 96 87" fill="none" xmlns="http://www.w3.org/2000/svg">
<path fill-rule="evenodd" clip-rule="evenodd" d="M51.0488 0.967159L51.2018 1.56221L52.4273 6.32994L52.4923 6.58283L52.4044 6.82869L50.5934 11.8929L50.5512 12.0109L50.4767 12.1118L46.3166 17.7491L46.2651 17.8189L46.2006 17.8769L41.5408 22.0645L36.7845 29.8448L37.2703 31.0376L41.1608 31.1702L54.9201 30.5618L55.0146 30.5577L55.1077 30.5743L61.3876 31.6978L71.4499 32.8614L80.0748 32.9334L83.8021 31.7447L83.8258 31.7372L83.8498 31.731L89.4768 30.2914L89.7635 30.218L90.0338 30.3382L95.1976 32.6339L95.778 32.8919L95.6961 33.5218L95.195 37.3775L95.1563 37.675L94.9397 37.8826L90.4591 42.1759L90.3554 42.2753L90.2248 42.3352L87.0066 43.8102L87.2949 44.0141L87.4812 44.1459L87.5766 44.3531L89.417 48.3486L89.5376 48.6104L89.4744 48.8917L88.3107 54.0646L88.2464 54.3504L88.02 54.5361L84.0103 57.8256L83.8391 57.9661L83.6211 58.0053L79.4501 58.7564L79.3675 58.7713L79.2836 58.7697L75.8 58.7058L78.2141 64.6321L78.3215 64.8959L78.2486 65.1712L76.941 70.1126L76.8692 70.3841L76.6499 70.5596L73.2952 73.2448L73.1406 73.3686L72.9472 73.4114L68.9841 74.2895L68.7796 74.3348L68.5775 74.2801L62.2963 72.581L61.9152 72.9359L65.2203 76.7782L65.451 77.0464L65.4238 77.399L65.0114 82.7442L64.9837 83.1038L64.7061 83.334L61.5192 85.9783L61.2287 86.2194L60.855 86.166L54.4214 85.2469L54.3862 85.2418L54.3515 85.2339L44.3198 82.9339L27.0206 83.6225L26.9071 83.627L26.7964 83.6016L13.6489 80.5873L13.3734 80.5241L13.1903 80.3087L4.3057 69.8541L4.16055 69.6833L4.11829 69.4632L2.6593 61.8625L0.429286 54.3611L0.371643 54.1672L0.407361 53.9681L2.0083 45.044L2.04504 44.8392L2.17209 44.6744L10.4447 33.9446L10.4559 33.9301L10.4677 33.9161L18.2857 24.6306L18.3219 24.5876L18.3635 24.5497L28.3097 15.4864L32.7425 10.0872L32.8554 9.94977L33.0138 9.86897L38.9369 6.84834L45.8472 0.855523L46.113 0.625L46.464 0.649333L50.4359 0.92467L51.0488 0.967159ZM60.8037 71.6437L61.4816 71.0123L61.8278 70.6898L62.2844 70.8134L68.8201 72.5814L72.3855 71.7914L75.3664 69.4054L76.5293 65.0109L74.1798 59.2431L72.9517 58.5516L71.7766 57.8899L68.7785 58.761L68.6179 58.8077L66.919 61.5867L65.6152 65.1953L67.4292 69.6648L65.851 70.3053L63.9143 65.5333L63.7915 65.2308L63.9024 64.9237L64.9806 61.9394L64.316 61.8631L64.2362 61.854L64.1595 61.83L62.2412 61.2314L60.9879 60.8403L61.8561 59.8554L63.2536 58.2699L63.4462 58.0514L63.7323 57.9966L68.3416 57.1144L71.6451 56.1546L71.9887 56.0547L72.3005 56.2303L73.6001 56.962L79.2309 57.0653L83.1013 56.3684L86.7133 53.4051L87.7494 48.7992L86.1251 45.2729L84.8164 44.3471L83.6381 43.5137L80.4978 44.2799L78.6622 45.6885L77.4576 46.6129L76.1625 47.91L75.0301 49.0441L74.7131 51.3651L75.7533 55.0166L74.1153 55.4832L73.0262 51.66L72.9773 51.4883L73.0015 51.3115L73.3814 48.5298L73.3921 48.4516L70.6455 48.8121L70.5724 48.8217L70.4987 48.8185L62.4273 48.4768L61.7842 48.4496L61.7538 48.3219L62.2386 50.8347L62.2672 50.9827L62.2432 51.1316L60.4517 62.2356L60.4318 62.3591L60.3772 62.4717L57.3107 68.791L58.1923 68.9241L58.5048 68.9712L58.7109 69.2108L60.8037 71.6437ZM55.5467 68.5249L58.7902 61.8408L60.5377 51.0093L58.6825 41.3946L60.3548 41.0719L61.1593 45.241L61.6626 45.0062L63.2604 44.2608L63.4401 44.177L63.6382 44.1811L70.6683 44.3276L77.8464 44.1677L79.6032 42.8196L79.7455 42.7104L79.9198 42.6678L83.6113 41.7671L83.9882 41.6752L84.3049 41.8992L85.3993 42.6733L89.3845 40.8468L93.5447 36.8604L93.9253 33.9322L89.6123 32.0147L84.296 33.3749L80.4625 34.5974L80.3328 34.6387L80.1967 34.6376L71.3902 34.5641L71.3447 34.5637L71.2995 34.5585L61.1658 33.3866L61.1396 33.3836L61.1136 33.379L54.9009 32.2675L41.2027 32.8731L41.1694 32.8746L41.1361 32.8735L36.6608 32.721L36.1093 32.7022L35.9012 32.1911L35.0448 30.0889L34.8826 29.6905L35.1069 29.3235L40.1525 21.07L40.2174 20.9639L40.3099 20.8808L44.9977 16.6681L49.0319 11.2013L50.7128 6.50105L49.7052 2.58127L46.6973 2.37275L39.9743 8.20312L39.8958 8.27119L39.8032 8.31839L33.946 11.3054L29.587 16.6147L29.5479 16.6623L29.5024 16.7038L19.5523 25.7707L11.7823 34.9991L3.64795 45.5495L2.11949 54.0697L4.30391 61.4178L4.31597 61.4583L4.32395 61.4999L5.74866 68.9219L14.3051 78.9903L27.0663 81.9161L44.3656 81.2276L44.4791 81.2231L44.5898 81.2484L54.6975 83.5658L60.7222 84.4266L63.3411 82.2536L63.6985 77.6207L60.0902 73.426L57.6258 70.561L55.9122 70.3025L54.3949 70.0736L52.362 72.8398L52.9382 76.545L56.9441 81.4873L55.621 82.5597L51.4704 77.439L51.3258 77.2606L51.2905 77.0337L50.6247 72.7516L50.5703 72.4018L50.7799 72.1165L53.3271 68.6505L53.6317 68.236L54.1404 68.3127L55.5467 68.5249ZM75.7445 45.9181L70.6879 46.0307L70.6695 46.0312L70.6512 46.0308L63.8009 45.888L63.0121 46.256L63.1424 46.8024L70.4971 47.1138L75.1619 46.5016L75.7445 45.9181ZM66.3656 59.2267L64.3386 59.6147L64.0019 59.9967L64.5901 60.1803L65.7044 60.3082L66.3656 59.2267ZM29.5141 49.3779L33.8451 36.1024L35.4643 36.6306L31.0532 50.1516L30.9731 50.397L30.7702 50.5567L17.8384 60.7344L16.785 59.396L29.5141 49.3779Z" fill="black"/>
</svg>
