<svg width="123" height="137" viewBox="0 0 123 137" fill="none" xmlns="http://www.w3.org/2000/svg">
<path d="M20.4426 19.7187L24.7119 6.2834L30.0949 3.48438L35.4779 8.70922L37.1485 16.7331L36.2204 27.3694L33.4361 36.6994V51.441L36.2204 53.4936L42.1602 50.1348L59.6086 38.3789L68.704 34.8334L82.8112 28.3024L94.3197 21.3981L98.357 16.7331L104.529 10.3886L113.067 9.26902L115.481 14.6805L113.067 23.8239L108.798 30.1684L111.582 30.355L117.151 34.087L119.75 41.7377L117.151 49.2017L112.325 53.4936L104.529 58.0653L107.128 57.972L115.481 64.1299L117.708 71.5939L115.481 77.7518L111.026 82.0436L100.816 85.0292L100.074 87.6895L108.613 90.4407L112.325 97.7181L110.283 103.689L101.188 107.608L86.1524 112.646L64.0635 127.388L44.5733 133.919L24.7119 127.388L16.7302 118.618L7.82036 110.594L2.80859 97.7181L5.03605 77.192L7.82036 58.905L13.5746 39.1253L15.0596 28.489L20.4426 19.7187Z" fill="white"/>
<path d="M20.4426 19.7187L24.7119 6.2834L30.0949 3.48438L35.4779 8.70922L37.1485 16.7331L36.2204 27.3694L33.4361 36.6994V51.441L36.2204 53.4936L42.1602 50.1348L59.6086 38.3789L68.704 34.8334L82.8112 28.3024L94.3197 21.3981L98.357 16.7331L104.529 10.3886L113.067 9.26902L115.481 14.6805L113.067 23.8239L108.798 30.1684L111.582 30.355L117.151 34.087L119.75 41.7377L117.151 49.2017L112.325 53.4936L104.529 58.0653L107.128 57.972L115.481 64.1299L117.708 71.5939L115.481 77.7518L111.026 82.0436L100.816 85.0292L100.074 87.6895L108.613 90.4407L112.325 97.7181L110.283 103.689L101.188 107.608L86.1524 112.646L64.0635 127.388L44.5733 133.919L24.7119 127.388L16.7302 118.618L7.82036 110.594L2.80859 97.7181L5.03605 77.192L7.82036 58.905L13.5746 39.1253L15.0596 28.489L20.4426 19.7187Z" fill="white"/>
<path d="M101.559 103.13L92.0923 99.7708L87.823 94.7325L88.3799 88.2015L91.257 86.9885M100.074 87.6895L108.613 90.4407L112.325 97.7181L110.283 103.689L101.188 107.608L86.1524 112.646L64.0635 127.388L44.5733 133.919L24.7119 127.388L16.7302 118.618L7.82036 110.594L2.80859 97.7181L5.03605 77.192L7.82036 58.905L13.5746 39.1253L15.0596 28.489L20.4426 19.7187L24.7119 6.2834L30.0949 3.48438L35.4779 8.70922L37.1485 16.7331L36.2204 27.3694L33.4361 36.6994V51.441L36.2204 53.4936L42.1602 50.1348L59.6086 38.3789L68.704 34.8334L82.8112 28.3024L94.3197 21.3981L98.357 16.7331L104.529 10.3886L113.067 9.26902L115.481 14.6805L113.067 23.8239L108.798 30.1684M100.074 87.6895L94.1341 85.7756L91.257 86.9885M100.074 87.6895L100.816 85.0292L111.026 82.0436L115.481 77.7518L117.708 71.5939L115.481 64.1299L107.128 57.972L104.529 58.0653M97.8465 68.2351V62.6371L98.357 62.0772M97.8465 68.2351L99.1459 74.5795L105.457 79.2446M97.8465 68.2351L95.4335 69.3547L92.4635 70.1011L93.0204 66.9289L98.357 62.0772M98.357 62.0772L101.93 58.1586L104.529 58.0653M104.529 58.0653L112.325 53.4936L117.151 49.2017L119.75 41.7377L117.151 34.087L111.582 30.355L108.798 30.1684M104.529 53.4936L100.074 49.3883L98.357 45.4697L99.0299 42.6707M99.0299 42.6707L99.7028 39.8717L100.565 37.6325M99.0299 42.6707L93.0204 47.5223L82.2544 53.4936L80.2125 51.441L81.6975 49.2017L90.9786 43.7903L100.565 37.6325M100.565 37.6325L101.93 34.087L106.014 29.9818L108.798 30.1684M73.3446 47.5223L83.5537 58.7184L90.0505 74.5795L91.257 86.9885M37.1485 60.9576L42.1602 82.0436L33.4361 105.555" stroke="black" stroke-width="5.28349"/>
</svg>
