<svg width="111" height="114" viewBox="0 0 111 114" fill="none" xmlns="http://www.w3.org/2000/svg">
<path d="M66.2825 90.0232L62.1319 84.9025L61.4661 80.6204L64.0133 77.1544L66.0393 77.4601M70.7358 80.8704L74.5747 85.3332L74.1623 90.6783L70.9754 93.3227L64.5418 92.4035L54.3994 90.0782L36.9867 90.7712L23.8392 87.7569L14.9546 77.3023L13.4876 69.6601L11.2455 62.1181L12.8465 53.194L21.1191 42.4643L28.9371 33.1788L38.9288 24.074L43.4007 18.6273L49.4163 15.5594L56.4051 9.49855L60.377 9.77388L61.6025 14.5416L59.7915 19.6058L55.6314 25.2432L50.8791 29.5139L45.8335 37.7673L46.6898 39.8695L51.165 40.0221L64.9577 39.4123L71.2635 40.5404L81.3973 41.7122L90.2037 41.7857L94.0608 40.5557L99.6879 39.1161L104.852 41.4117L104.35 45.2674L99.8699 49.5607L95.3081 51.6516M70.7358 80.8704L68.0652 77.7658L66.0393 77.4601M70.7358 80.8704L72.062 79.6351L78.7998 81.4578L82.763 80.5797L86.1177 77.8944L87.4254 72.953L84.8564 66.6464L83.3695 65.8092M76.1474 69.2159L78.0634 66.0816L78.5408 65.9429M76.1474 69.2159L74.7033 73.2127L76.6401 77.9847M76.1474 69.2159L74.4131 69.0168L72.4949 68.4182L73.8924 66.8327L78.5408 65.9429M78.5408 65.9429L81.8826 64.972L83.3695 65.8092M83.3695 65.8092L89.2991 65.918L93.4702 65.1669L97.4799 61.8774L98.6435 56.7045L96.8031 52.709L95.3081 51.6516M84.9343 63.2496L83.8452 59.4264L84.2251 56.6447L85.5599 55.3079M85.5599 55.3079L86.8946 53.9711L88.1438 53.0126M85.5599 55.3079L80.5347 55.9674L72.4633 55.6257L72.0226 53.7776L73.6205 53.0322L80.6689 53.179L88.1438 53.0126M88.1438 53.0126L90.1216 51.4948L93.8131 50.5941L95.3081 51.6516M69.5186 49.2329L71.4024 58.9957L69.611 70.0996L66.0393 77.4601M44.6547 44.3662L40.2436 57.8871L27.3117 68.0648" stroke="black" stroke-width="1.70316"/>
</svg>
