<svg width="63" height="70" viewBox="0 0 63 70" fill="none" xmlns="http://www.w3.org/2000/svg">
<path d="M10.5981 10.1882L12.7886 3.29488L15.5505 1.85876L18.3124 4.53952L19.1695 8.65639L18.6933 14.1136L17.2648 18.9007V26.4642L18.6933 27.5174L21.741 25.7941L30.6933 19.7624L35.36 17.9433L42.5981 14.5923L48.5029 11.0499L50.5743 8.65639L53.741 5.40119L58.1219 4.82674L59.36 7.60323L58.1219 12.2946L55.9314 15.5498L57.36 15.6455L60.2171 17.5603L61.5505 21.4857L60.2171 25.3153L57.741 27.5174L53.741 29.8631L55.0743 29.8152L59.36 32.9746L60.5029 36.8043L59.36 39.9637L57.0743 42.1658L51.8362 43.6977L51.4552 45.0626L55.8362 46.4741L57.741 50.208L56.6933 53.2718L52.0267 55.2823L44.3124 57.8673L32.979 65.4309L22.979 68.7818L12.7886 65.4309L8.69333 60.9311L4.1219 56.8142L1.55048 50.208L2.69333 39.6765L4.1219 30.2939L7.07429 20.1453L7.83619 14.6881L10.5981 10.1882Z" fill="white"/>
<path d="M52.2171 52.9845L47.36 51.2612L45.1695 48.6762L45.4552 45.3253L46.9314 44.7029M51.4552 45.0626L55.8362 46.4741L57.741 50.2081L56.6933 53.2718L52.0267 55.2823L44.3124 57.8673L32.979 65.4309L22.979 68.7818L12.7886 65.4309L8.69333 60.9311L4.1219 56.8142L1.55048 50.2081L2.69333 39.6765L4.1219 30.2939L7.07429 20.1453L7.83619 14.6881L10.5981 10.1882L12.7886 3.29488L15.5505 1.85876L18.3124 4.53952L19.1695 8.65639L18.6933 14.1136L17.2648 18.9007V26.4642L18.6933 27.5174L21.741 25.7941L30.6933 19.7624L35.36 17.9433L42.5981 14.5923L48.5029 11.0499L50.5743 8.65639L53.741 5.40119L58.1219 4.82674L59.36 7.60323L58.1219 12.2946L55.9314 15.5498M51.4552 45.0626L48.4076 44.0806L46.9314 44.7029M51.4552 45.0626L51.8362 43.6977L57.0743 42.1658L59.36 39.9637L60.5029 36.8043L59.36 32.9746L55.0743 29.8152L53.741 29.8631M50.3124 35.0809V32.2087L50.5743 31.9215M50.3124 35.0809L50.979 38.3361L54.2171 40.7297M50.3124 35.0809L49.0743 35.6554L47.5505 36.0384L47.8362 34.4108L50.5743 31.9215M50.5743 31.9215L52.4076 29.9109L53.741 29.8631M53.741 29.8631L57.741 27.5174L60.2171 25.3153L61.5505 21.4857L60.2171 17.5603L57.36 15.6455L55.9314 15.5498M53.741 27.5174L51.4552 25.4111L50.5743 23.4005L50.9195 21.9644M50.9195 21.9644L51.2648 20.5283L51.7072 19.3794M50.9195 21.9644L47.8362 24.4537L42.3124 27.5174L41.2648 26.4642L42.0267 25.3153L46.7886 22.5389L51.7072 19.3794M51.7072 19.3794L52.4076 17.5603L54.5029 15.454L55.9314 15.5498M37.741 24.4537L42.979 30.1981L46.3124 38.3361L46.9314 44.7029M19.1695 31.347L21.741 42.1658L17.2648 54.2292" stroke="black" stroke-width="1.5"/>
</svg>
