<svg width="88" height="89" viewBox="0 0 88 89" fill="none" xmlns="http://www.w3.org/2000/svg">
<path d="M65.0969 32.3294C64.8402 31.3627 64.268 29.333 64.268 29.333L62.6903 28.5513L58.22 29.333L50.4628 34.2836L44.2833 37.28L32.7132 39.3644L17.8561 46.3994L8.12667 57.3428L1.55273 71.0219L2.86752 77.5358L12.071 84.8314L26.6652 87.437L32.7132 85.7433L38.8927 81.3139L66.7661 69.9797L70.4475 65.2897L74.2604 56.8216L85.8305 42.7516L87.1453 38.4525V19.8227L84.2528 9.92159H83.3324M17.0672 60.4694L22.4578 56.6914L29.8206 54.6069L44.2833 51.7408L47.5703 47.1811L53.0924 43.7938L56.7738 42.7516L63.6107 35.7166L67.555 26.7274L68.0809 20.8649L69.9216 14.7419L73.0771 11.4849L74.7863 11.0941M59.6663 62.6841L62.6903 61.5116L66.1087 53.8252L72.2882 42.2305L73.5138 38.4525M77.4816 11.6152L76.4956 10.7033L74.7863 11.0941M77.4816 11.6152L78.4677 12.5271L77.0215 27.6394L76.4721 29.333M77.4816 11.6152L79.914 9.92159H83.3324M76.4721 29.333L76.2326 35.0652L73.5138 38.4525M76.4721 29.333L73.5138 38.4525M74.7863 11.0941V7.96742L76.4721 4.05908L79.914 1.84436L83.3324 3.4077V9.92159" stroke="black" stroke-width="1.70316"/>
</svg>
