<svg width="70" height="69" viewBox="0 0 70 69" fill="none" xmlns="http://www.w3.org/2000/svg">
<path d="M1.65149 54.9473L6.79151 44.2518L14.3987 35.6954L26.0152 30.1949L35.0616 28.5651L39.8932 26.2223L45.9585 22.3516L49.4537 21.7404L50.6873 22.3516C50.6873 22.3516 51.1347 23.9386 51.3354 24.6944L53.2573 20.3143L53.6685 15.7306L55.1077 10.9431L57.5749 8.39652L58.9113 8.09094V5.64626L60.2294 2.59041L62.9205 0.858765L65.5934 2.0811V7.17418H66.313L68.5746 14.9157V29.4819L67.5466 32.8433L58.5001 43.8444L55.5189 50.4654L52.6405 54.1324L30.8468 62.9943L26.0152 66.4576L21.2864 67.7818L9.87552 65.7446L2.67949 60.0404L1.65149 54.9473Z" fill="white"/>
<path d="M51.3354 24.6944C51.1346 23.9386 50.6873 22.3516 50.6873 22.3516L49.4537 21.7404L45.9585 22.3516L39.8932 26.2223L35.0616 28.5651L26.0152 30.1949L14.3987 35.6954L6.79151 44.2518L1.65149 54.9473L2.67949 60.0404L9.87552 65.7446L21.2864 67.7818L26.0152 66.4576L30.8468 62.9943L52.6405 54.1324L55.5189 50.4654L58.5001 43.8444L67.5466 32.8433L68.5746 29.4819V14.9157L66.313 7.17418H65.5934M13.7819 46.6965L17.9968 43.7425L23.7536 42.1127L35.0616 39.8718L37.6316 36.3066L41.9493 33.6582L44.8277 32.8433L50.1733 27.3428L53.2573 20.3143L53.6685 15.7306L55.1077 10.9431L57.5749 8.39652L58.9113 8.09094M47.0893 48.4281L49.4537 47.5114L52.1265 41.5015L56.9581 32.4359L57.9164 29.4819M61.0187 8.49838L60.2477 7.78535L58.9113 8.09094M61.0187 8.49838L61.7897 9.21142L60.6589 21.0274L60.2294 22.3516M61.0187 8.49838L62.9205 7.17418H65.5934M60.2294 22.3516L60.0421 26.8335L57.9164 29.4819M60.2294 22.3516L57.9164 29.4819M58.9113 8.09094V5.64626L60.2294 2.59041L62.9205 0.858765L65.5934 2.0811V7.17418" stroke="black" stroke-width="1.5"/>
</svg>
