<svg width="137" height="137" viewBox="0 0 137 137" fill="none" xmlns="http://www.w3.org/2000/svg">
<path d="M3.39062 108.904L13.4086 88.0583L28.2353 71.3818L50.876 60.6611L68.5077 57.4846L77.9246 52.9184L89.7458 45.3743L96.5581 44.1831L98.9624 45.3743C98.9624 45.3743 99.8343 48.4674 100.226 49.9405L103.971 41.4037L104.773 32.4698L107.578 23.1389L112.387 18.1756L114.991 17.58V12.8153L117.56 6.85939L122.805 3.48438L128.015 5.86674V15.7933H129.417L133.825 30.8816V59.2714L131.821 65.8229L114.19 87.2642L108.379 100.169L102.769 107.316L60.2929 124.588L50.876 131.338L41.6594 133.919L19.4194 129.948L5.39423 118.831L3.39062 108.904Z" fill="white"/>
<path d="M3.39062 108.904L13.4086 88.0583L28.2353 71.3818L50.876 60.6611L68.5077 57.4846L77.9246 52.9184L89.7458 45.3743L96.5581 44.1831L98.9624 45.3743C98.9624 45.3743 99.8343 48.4674 100.226 49.9405L103.971 41.4037L104.773 32.4698L107.578 23.1389L112.387 18.1756L114.991 17.58V12.8153L117.56 6.85939L122.805 3.48438L128.015 5.86674V15.7933H129.417L133.825 30.8816V59.2714L131.821 65.8229L114.19 87.2642L108.379 100.169L102.769 107.316L60.2929 124.588L50.876 131.338L41.6594 133.919L19.4194 129.948L5.39423 118.831L3.39062 108.904Z" fill="white"/>
<path d="M100.226 49.9405C99.8343 48.4674 98.9624 45.3743 98.9624 45.3743L96.5581 44.1831L89.7458 45.3743L77.9246 52.9184L68.5077 57.4846L50.876 60.6611L28.2353 71.3818L13.4086 88.0583L3.39062 108.904L5.39423 118.831L19.4194 129.948L41.6594 133.919L50.876 131.338L60.2929 124.588L102.769 107.316L108.379 100.169L114.19 87.2642L131.821 65.8229L133.825 59.2714V30.8816L129.417 15.7933H128.015M27.0331 92.823L35.2479 87.0657L46.4681 83.8892L68.5077 79.5215L73.5167 72.5729L81.9318 67.4112L87.5419 65.8229L97.9606 55.1023L103.971 41.4037L104.773 32.4698L107.578 23.1389L112.387 18.1756L114.991 17.58M91.9498 96.1981L96.5581 94.4113L101.767 82.698L111.184 65.0288L113.052 59.2714M119.099 18.3742L117.596 16.9844L114.991 17.58M119.099 18.3742L120.601 19.7639L118.397 42.7934L117.56 45.3743M119.099 18.3742L122.805 15.7933H128.015M117.56 45.3743L117.195 54.1096L113.052 59.2714M117.56 45.3743L113.052 59.2714M114.991 17.58V12.8153L117.56 6.85939L122.805 3.48438L128.015 5.86674V15.7933" stroke="black" stroke-width="5.28349"/>
</svg>
