<svg width="92" height="92" viewBox="0 0 92 92" fill="none" xmlns="http://www.w3.org/2000/svg">
<path d="M67.9446 33.4858C67.6769 32.478 67.0804 30.362 67.0804 30.362L65.4356 29.5471L60.7753 30.362L52.6884 35.523L46.2462 38.6468L34.1843 40.8198L18.6957 48.1538L8.55273 59.5623L1.69937 73.823L3.07004 80.6137L12.6647 88.2194L27.8792 90.9357L34.1843 89.1701L40.6265 84.5524L69.6847 72.7364L73.5226 67.8471L77.4975 59.0191L89.5595 44.351L90.9301 39.8691V20.4475L87.9147 10.1255H86.9552M17.8733 62.8219L23.4931 58.8833L31.1688 56.7102L46.2462 53.7223L49.6729 48.9687L55.4297 45.4375L59.2676 44.351L66.3951 37.017L70.5071 27.6457L71.0554 21.534L72.9743 15.1507L76.2639 11.7553L78.0458 11.3479M62.2831 65.1308L65.4356 63.9084L68.9994 55.8953L75.4415 43.8078L76.7192 39.8691M80.8557 11.8911L79.8277 10.9404L78.0458 11.3479M80.8557 11.8911L81.8837 12.8418L80.376 28.5964L79.8032 30.362M80.8557 11.8911L83.3914 10.1255H86.9552M79.8032 30.362L79.5536 36.3379L76.7192 39.8691M79.8032 30.362L76.7192 39.8691M78.0458 11.3479V8.08828L79.8032 4.01382L83.3914 1.70496L86.9552 3.33474V10.1255" stroke="black" stroke-width="2"/>
</svg>
