<svg width="58" height="88" viewBox="0 0 58 88" fill="none" xmlns="http://www.w3.org/2000/svg">
<path d="M13.8345 5.55098L13.2683 2.88228L14.1176 0.84436H17.0898L27.5633 5.35689L43.8398 17.1477L46.3875 20.2046L51.1996 37.818L56.2949 50.7734L55.1626 55.7226L50.6335 60.5263L36.7631 74.0639L26.148 85.2724L17.0898 86.437L9.44691 83.9623L0.954834 78.2853V73.1905L2.57237 68.5324M34.4985 47.4254L31.8094 43.0584L29.1202 35.7753M8.37125 12.0529L7.60696 11.6162L5.34241 12.0529L4.4932 15.2554L6.19162 18.8945L11.2869 22.8248L14.5121 29.6664M8.37125 12.0529L15.2498 15.9832L21.3655 22.5247M8.37125 12.0529L7.04082 9.72386V6.37585L8.37125 4.0468L12.1361 4.77463L21.0528 8.85047L36.6216 21.078L38.1784 23.8437L42.7076 38.4003L44.8306 42.3306M21.3655 22.5247L25.8649 27.3373L27.5633 31.5587L29.1202 35.7753M21.3655 22.5247L26.5726 26.0272L28.271 29.0841L29.1202 35.7753M14.5121 29.6664L15.816 32.4321L18.3636 41.4572L16.3821 46.6975L15.2498 51.7923L9.44691 57.3238L3.78553 65.0388L2.57237 68.5324M14.5121 29.6664L13.1268 36.6535L9.44691 44.6596L5.34241 50.9189L3.07785 55.8682L2.37018 62.7098L2.57237 68.5324" stroke="black" stroke-width="1.70316"/>
</svg>
