<svg width="46" height="69" viewBox="0 0 46 69" fill="none" xmlns="http://www.w3.org/2000/svg">
<path d="M4.11502 12.1264L4.779 9.6225L6.54961 9.28106L7.14719 9.6225L6.10696 7.80146V5.18372L7.14719 3.36269L10.0908 3.93176L11.4188 4.53877L10.9761 2.45217L11.6401 0.858765H13.964L22.1531 4.38702L34.8793 13.606L36.8713 15.9961L40.6338 29.7677L44.6177 39.8972L43.7324 43.7669L40.1912 47.5228L29.3462 58.1076L21.0465 66.8713L13.964 67.7818L7.98823 65.847L1.34845 61.4082V57.4247L2.61317 53.7826L2.45508 49.23L3.00839 43.8807L4.779 40.011L7.98823 35.117L10.8655 28.8572L11.9486 23.3941L9.42685 18.0448L5.44298 14.9718L4.11502 12.1264Z" fill="white"/>
<path d="M11.4188 4.53877L10.9761 2.45217L11.6401 0.858765H13.964L22.1531 4.38702L34.8793 13.606L36.8713 15.9961L40.6338 29.7677L44.6177 39.8972L43.7324 43.7669L40.1912 47.5228L29.3462 58.1076L21.0465 66.8713L13.964 67.7818L7.98823 65.847L1.34845 61.4082V57.4247L2.61317 53.7826M27.5756 37.2795L25.473 33.865L23.3704 28.1705M7.14719 9.6225L6.54961 9.28106L4.779 9.6225L4.11502 12.1264L5.44298 14.9718L9.42685 18.0448L11.9486 23.3941M7.14719 9.6225L12.5254 12.6955L17.3072 17.8101M7.14719 9.6225L6.10696 7.80146V5.18373L7.14719 3.36269L10.0908 3.93176L17.0626 7.11858L29.2355 16.679L30.4528 18.8415L33.994 30.223L35.654 33.296M17.3072 17.8101L20.8251 21.573L22.1531 24.8737L23.3704 28.1705M17.3072 17.8101L21.3785 20.5487L22.7064 22.9388L23.3704 28.1705M11.9486 23.3941L12.9681 25.5566L14.96 32.6131L13.4107 36.7104L12.5254 40.6939L7.98823 45.0189L3.56171 51.0511L2.61317 53.7826M11.9486 23.3941L10.8655 28.8572L7.98823 35.117L4.779 40.011L3.00839 43.8807L2.45508 49.23L2.61317 53.7826" stroke="black" stroke-width="1.5"/>
</svg>
