<svg width="61" height="92" viewBox="0 0 61 92" fill="none" xmlns="http://www.w3.org/2000/svg">
<path d="M14.7224 6.61164L14.1322 3.8295L15.0175 1.70496H18.1161L29.0348 6.4093L46.0032 18.7013L48.6591 21.8881L53.6758 40.2502L58.9876 53.7562L57.8072 58.9158L53.0856 63.9237L38.6256 78.0367L27.5593 89.7217L18.1161 90.9357L10.1484 88.3559L1.29532 82.4376V77.1262L2.98161 72.2701M36.2648 50.2659L33.4614 45.7133L30.6579 38.1206M9.02697 13.3899L8.2302 12.9347L5.86939 13.3899L4.98409 16.7285L6.75469 20.5223L12.0665 24.6197L15.4289 31.7521M9.02697 13.3899L16.1979 17.4873L22.5736 24.3068M9.02697 13.3899L7.64 10.9619V7.47157L9.02697 5.04352L12.9518 5.80229L22.2475 10.0514L38.4781 22.7986L40.1011 25.6819L44.8228 40.8572L47.036 44.9546M22.5736 24.3068L27.2642 29.324L29.0348 33.7248L30.6579 38.1206M22.5736 24.3068L28.002 27.9582L29.7726 31.145L30.6579 38.1206M15.4289 31.7521L16.7881 34.6354L19.4441 44.044L17.3783 49.5072L16.1979 54.8185L10.1484 60.5851L4.24633 68.628L2.98161 72.2701M15.4289 31.7521L13.9847 39.0362L10.1484 47.3826L5.86939 53.908L3.50858 59.0676L2.77083 66.2L2.98161 72.2701" stroke="black" stroke-width="2"/>
</svg>
