<svg width="91" height="137" viewBox="0 0 91 137" fill="none" xmlns="http://www.w3.org/2000/svg">
<path d="M8.46242 25.4453L9.75653 20.5651L13.2075 19.8996L14.3722 20.5651L12.3447 17.0158V11.9138L14.3722 8.36458L20.1094 9.47371L22.6976 10.6568L21.8349 6.58996L23.129 3.48438H27.6583L43.619 10.361L68.4227 28.329L72.305 32.9874L79.6383 59.8285L87.4029 79.5711L85.6775 87.1133L78.7756 94.4336L57.6385 115.064L41.4621 132.144L27.6583 133.919L16.0114 130.148L3.07031 121.496V113.733L5.53528 106.634L5.22716 97.761L6.30558 87.3351L9.75653 79.793L16.0114 70.2544L21.6192 58.0539L23.7303 47.4062L18.8153 36.9803L11.0506 30.991L8.46242 25.4453Z" fill="white"/>
<path d="M8.46242 25.4453L9.75653 20.5651L13.2075 19.8996L14.3722 20.5651L12.3447 17.0158V11.9138L14.3722 8.36458L20.1094 9.47371L22.6976 10.6568L21.8349 6.58996L23.129 3.48438H27.6583L43.619 10.361L68.4227 28.329L72.305 32.9874L79.6383 59.8285L87.4029 79.5711L85.6775 87.1133L78.7756 94.4336L57.6385 115.064L41.4621 132.144L27.6583 133.919L16.0114 130.148L3.07031 121.496V113.733L5.53528 106.634L5.22716 97.761L6.30558 87.3351L9.75653 79.793L16.0114 70.2544L21.6192 58.0539L23.7303 47.4062L18.8153 36.9803L11.0506 30.991L8.46242 25.4453Z" fill="white"/>
<path d="M22.6976 10.6568L21.8349 6.58996L23.129 3.48438H27.6583L43.619 10.361L68.4227 28.329L72.305 32.9874L79.6383 59.8285L87.4029 79.5711L85.6775 87.1133L78.7756 94.4336L57.6385 115.064L41.4621 132.144L27.6583 133.919L16.0114 130.148L3.07031 121.496V113.733L5.53528 106.634M54.1875 74.4691L50.0895 67.8143L45.9915 56.7155M14.3722 20.5651L13.2075 19.8996L9.75653 20.5651L8.46242 25.4453L11.0506 30.991L18.8153 36.9803L23.7303 47.4062M14.3722 20.5651L24.8544 26.5544L34.1742 36.523M14.3722 20.5651L12.3447 17.0158V11.9138L14.3722 8.36458L20.1094 9.47371L33.6975 15.6849L57.4228 34.3184L59.7953 38.5331L66.6972 60.7158L69.9325 66.7052M34.1742 36.523L41.0308 43.8569L43.619 50.2899L45.9915 56.7155M34.1742 36.523L42.1092 41.8605L44.6974 46.5189L45.9915 56.7155M23.7303 47.4062L25.7172 51.6209L29.5995 65.3742L26.5799 73.36L24.8544 81.1239L16.0114 89.5534L7.384 101.31L5.53528 106.634M23.7303 47.4062L21.6192 58.0539L16.0114 70.2544L9.75653 79.793L6.30558 87.3351L5.22716 97.761L5.53528 106.634" stroke="black" stroke-width="5.28349"/>
</svg>
